<svg width="312" height="260" viewBox="0 0 312 260" fill="none" xmlns="http://www.w3.org/2000/svg">
<path opacity="0.17" d="M145.704 231.587C176.663 231.587 201.76 221.539 201.76 209.144C201.76 196.749 176.663 186.701 145.704 186.701C114.745 186.701 89.6479 196.749 89.6479 209.144C89.6479 221.539 114.745 231.587 145.704 231.587Z" fill="#2D2D2D"/>
<path opacity="0.17" d="M212.909 193.066C243.868 193.066 268.965 183.017 268.965 170.622C268.965 158.227 243.868 148.179 212.909 148.179C181.95 148.179 156.853 158.227 156.853 170.622C156.853 183.017 181.95 193.066 212.909 193.066Z" fill="#2D2D2D"/>
<path opacity="0.17" d="M130.926 160.254C161.884 160.254 186.982 150.205 186.982 137.81C186.982 125.415 161.884 115.367 130.926 115.367C99.9666 115.367 74.8695 125.415 74.8695 137.81C74.8695 150.205 99.9666 160.254 130.926 160.254Z" fill="#2D2D2D"/>
<path d="M218.65 242.185L214.521 222.955L207.459 227.386L128.294 181.095L165.474 159.359L150.914 150.738L98.1033 180.742L193.315 236.278L186.493 240.562L218.65 242.185Z" fill="#256187" stroke="#244356" stroke-width="0.866398" stroke-miterlimit="10" stroke-linecap="round" stroke-linejoin="round"/>
<path d="M218.65 234.822L214.521 215.592L207.459 220.023L128.294 173.732L165.474 151.996L150.914 143.375L98.1033 173.368L193.315 228.915L186.493 233.199L218.65 234.822Z" fill="#1AA3FA" stroke="#244356" stroke-width="0.866398" stroke-miterlimit="10" stroke-linecap="round" stroke-linejoin="round"/>
<path d="M98.1033 173.368V180.742L187.231 232.731L193.315 228.915L98.1033 173.368ZM165.474 151.996V159.359L134.586 177.414L128.294 173.732L165.474 151.996ZM186.493 233.199V240.563L218.65 242.185V234.822L186.493 233.199Z" fill="#0691EA" stroke="#244356" stroke-width="0.866398" stroke-miterlimit="10" stroke-linecap="round" stroke-linejoin="round"/>
<path d="M217.89 233.803L190.58 232.43C190.351 232.419 190.154 232.263 190.102 232.035C190.039 231.816 190.133 231.577 190.33 231.463L196.414 227.635L101.951 172.526C101.785 172.432 101.691 172.255 101.691 172.068C101.691 172.016 101.702 171.964 101.712 171.912L99.1432 173.368L193.575 228.447C193.731 228.54 193.835 228.706 193.835 228.894C193.835 229.081 193.742 229.247 193.586 229.341L188.167 232.742L217.984 234.239L217.89 233.803Z" fill="white"/>
<path d="M188.271 240.125V235.383C188.271 235.237 188.334 235.102 188.438 234.998C188.542 234.894 188.677 234.853 188.823 234.853L218.13 236.329V235.3L187.023 233.74V240.053L188.271 240.125ZM192.296 228.935L98.6129 174.293V175.791L189.717 228.935C189.873 229.029 189.977 229.195 189.977 229.382C189.977 229.569 189.883 229.736 189.727 229.829L186.618 231.785L187.211 232.128L192.296 228.935Z" fill="#1AA3FA"/>
<path d="M203.746 218.462L128.024 174.19C127.868 174.096 127.764 173.919 127.764 173.742C127.764 173.566 127.858 173.389 128.024 173.295L164.434 152.006L150.904 143.988L149.292 144.903L160.514 151.549C160.67 151.642 160.774 151.819 160.774 151.996C160.774 152.173 160.67 152.35 160.514 152.443L124.114 173.732L202.238 219.409L203.746 218.462Z" fill="#85CFFF"/>
<path d="M245.742 135.928V142.511L231.005 151.31V144.716L245.742 135.928Z" fill="#1991DD" stroke="#244356" stroke-width="0.866398" stroke-miterlimit="10" stroke-linecap="round" stroke-linejoin="round"/>
<path d="M231.005 144.716V151.31L212.909 140.806V134.222L231.005 144.716Z" fill="#256187" stroke="#244356" stroke-width="0.866398" stroke-miterlimit="10" stroke-linecap="round" stroke-linejoin="round"/>
<path d="M245.742 135.928L231.005 144.716L212.909 134.222L227.77 125.674L245.742 135.928Z" fill="#50B1EF" stroke="#244356" stroke-width="0.866398" stroke-miterlimit="10" stroke-linecap="round" stroke-linejoin="round"/>
<path d="M232.274 149.937V145.829C232.274 145.642 232.367 145.475 232.534 145.382L245.222 137.81V136.854L231.535 145.028V150.394L232.274 149.937Z" fill="#50B1EF"/>
<path d="M230.485 150.395V145.028L213.439 135.148V135.918L229.487 145.215C229.643 145.309 229.747 145.486 229.747 145.663V149.968L230.485 150.395Z" fill="#1991DD"/>
<path d="M230.734 142.948L214.822 133.734L213.949 134.233L231.005 144.123L244.712 135.938L243.859 135.439L231.286 142.948C231.109 143.042 230.901 143.042 230.734 142.948Z" fill="#FEFFFF"/>
<path d="M237.047 155.147V161.741L222.31 170.529V163.946L237.047 155.147Z" fill="#1991DD" stroke="#244356" stroke-width="0.866398" stroke-miterlimit="10" stroke-linecap="round" stroke-linejoin="round"/>
<path d="M222.31 163.946V170.529L192.327 152.943V146.359L222.31 163.946Z" fill="#256187" stroke="#244356" stroke-width="0.866398" stroke-miterlimit="10" stroke-linecap="round" stroke-linejoin="round"/>
<path d="M237.047 155.147L222.31 163.946L192.327 146.359L207.189 137.811L237.047 155.147Z" fill="#50B1EF" stroke="#244356" stroke-width="0.866398" stroke-miterlimit="10" stroke-linecap="round" stroke-linejoin="round"/>
<path d="M223.579 169.167V165.048C223.579 164.861 223.673 164.695 223.839 164.601L236.527 157.03V156.073L222.841 164.247V169.614L223.579 169.167Z" fill="#50B1EF"/>
<path d="M221.79 169.624V164.257L192.858 147.285V148.054L220.782 164.445C220.938 164.538 221.042 164.715 221.042 164.892V169.197L221.79 169.624Z" fill="#1991DD"/>
<path d="M222.05 162.167L194.251 145.86L193.378 146.359L222.31 163.342L236.018 155.157L235.165 154.658L222.591 162.167C222.414 162.271 222.206 162.271 222.05 162.167Z" fill="#FEFFFF"/>
<path d="M233.917 177.902V184.486L219.18 193.284V186.701L233.917 177.902Z" fill="#1991DD" stroke="#244356" stroke-width="0.866398" stroke-miterlimit="10" stroke-linecap="round" stroke-linejoin="round"/>
<path d="M219.18 186.701V193.284L171.746 165.079V158.496L219.18 186.701Z" fill="#256187" stroke="#244356" stroke-width="0.866398" stroke-miterlimit="10" stroke-linecap="round" stroke-linejoin="round"/>
<path d="M233.917 177.902L219.18 186.701L171.746 158.496L186.618 149.947L233.917 177.902Z" fill="#50B1EF" stroke="#244356" stroke-width="0.866398" stroke-miterlimit="10" stroke-linecap="round" stroke-linejoin="round"/>
<path d="M220.459 191.922V187.814C220.459 187.626 220.553 187.46 220.719 187.366L233.407 179.795V178.838L219.721 187.013V192.379L220.459 191.922Z" fill="#50B1EF"/>
<path d="M218.66 192.369V187.003L172.276 159.411V160.181L217.651 187.19C217.807 187.283 217.911 187.46 217.911 187.637V191.943L218.66 192.369Z" fill="#1991DD"/>
<path d="M218.92 184.922L173.67 157.997L172.796 158.496L219.18 186.087L232.887 177.902L232.035 177.403L219.461 184.912C219.284 185.016 219.087 185.016 218.92 184.922Z" fill="#FEFFFF"/>
<path d="M224.598 196.955V203.539L209.862 212.337V205.743L224.598 196.955Z" fill="#1991DD" stroke="#244356" stroke-width="0.866398" stroke-miterlimit="10" stroke-linecap="round" stroke-linejoin="round"/>
<path d="M209.862 205.743V212.337L151.174 177.216V170.623L209.862 205.743Z" fill="#256187" stroke="#244356" stroke-width="0.866398" stroke-miterlimit="10" stroke-linecap="round" stroke-linejoin="round"/>
<path d="M224.598 196.955L209.862 205.743L151.174 170.622L166.036 162.084L224.598 196.955Z" fill="#50B1EF" stroke="#244356" stroke-width="0.866398" stroke-miterlimit="10" stroke-linecap="round" stroke-linejoin="round"/>
<path d="M211.141 210.964V206.856C211.141 206.669 211.234 206.502 211.401 206.409L224.089 198.838V197.881L210.402 206.055V211.422L211.141 210.964Z" fill="#50B1EF"/>
<path d="M209.342 211.421V206.055L151.694 171.548V172.317L208.333 206.232C208.489 206.325 208.593 206.502 208.593 206.679V210.985L209.342 211.421Z" fill="#1991DD"/>
<path d="M209.602 203.965L153.088 170.134L152.214 170.633L209.862 205.14L223.569 196.955L222.716 196.456L210.142 203.965C209.966 204.069 209.768 204.069 209.602 203.965Z" fill="#FEFFFF"/>
<path d="M113.516 201.625V205.743C113.516 205.743 87.3705 196.186 71.3337 181.085C55.2969 165.994 56.2433 142.646 56.2433 142.646V55.3072L61.4017 52.5408V140.733C61.4017 140.733 60.4553 164.081 76.4921 179.171C92.5289 194.262 113.516 201.625 113.516 201.625Z" fill="#0098F9" stroke="#244356" stroke-width="0.692059" stroke-miterlimit="10" stroke-linecap="round" stroke-linejoin="round"/>
<path d="M113.516 205.743V201.625C113.516 201.625 92.5288 194.262 76.492 179.171C60.4552 164.081 61.4016 140.733 61.4016 140.733V52.5408L56.2432 55.3072V50.0448L52.9568 51.8024L43.0352 57.1168L65.4368 20.332L70.0648 23.7016L84.8848 34.4864L74.6304 39.676V132.288C74.6304 132.288 73.684 155.636 89.7208 170.726C101.743 182.042 119.454 190.247 127.566 193.648L127.629 193.679C130.302 194.792 131.903 195.385 131.903 195.385L113.516 205.743Z" fill="#0098F9" stroke="#244356" stroke-width="0.692059" stroke-miterlimit="10" stroke-linecap="round" stroke-linejoin="round"/>
<path d="M131.914 191.256L127.639 193.669L113.526 201.625C113.526 201.625 92.5391 194.262 76.5023 179.171C60.4656 164.081 61.412 140.733 61.412 140.733V52.5409L56.2536 55.3073L48.2144 59.6129L52.9672 51.8025L70.0856 23.7017L70.616 22.8281L90.0743 36.9721L79.82 42.1617V130.354C79.82 130.354 78.8735 153.702 94.9103 168.792C110.947 183.883 131.914 191.256 131.914 191.256Z" fill="#43B6FF" stroke="#244356" stroke-width="0.692059" stroke-miterlimit="10" stroke-linecap="round" stroke-linejoin="round"/>
<path d="M131.914 191.256V195.375L113.516 205.743V201.365L127.567 193.638L131.914 191.256Z" fill="#107BBF" stroke="#244356" stroke-width="0.692059" stroke-miterlimit="10" stroke-linecap="round" stroke-linejoin="round"/>
<path d="M65.4368 20.332L70.6056 22.828L48.1936 59.6128L43.0352 57.1168L65.4368 20.332Z" fill="#8AD1FF" stroke="#244356" stroke-width="0.692059" stroke-miterlimit="10" stroke-linecap="round" stroke-linejoin="round"/>
<path d="M76.7832 178.87C91.7904 192.993 111.415 200.418 113.485 201.178L130.926 191.339C130.562 191.204 130.083 191.017 129.501 190.788L117.302 197.673C117.198 197.735 117.073 197.746 116.958 197.704C116.75 197.631 95.7008 190.133 79.7888 175.157C63.804 160.108 64.5528 136.635 64.5632 136.396V48.9216L51.9792 55.6608C51.8128 55.744 51.6048 55.7128 51.48 55.5776C51.3864 55.484 51.3552 55.3592 51.3656 55.2344L49.3584 58.5208L61.2144 52.1664C61.2768 52.1352 61.3496 52.1144 61.412 52.1144C61.4848 52.1144 61.5576 52.1352 61.6304 52.1768C61.7552 52.2496 61.8384 52.3848 61.8384 52.5408V140.733C61.8072 140.982 61.0792 164.081 76.7832 178.87Z" fill="white"/>
<path d="M53.0088 56.5656L71.4064 26.3536C71.4688 26.2496 71.5624 26.1872 71.6768 26.156C71.7912 26.1352 71.9056 26.156 72.0096 26.2288L87.7448 37.6688L89.2632 36.8992L70.72 23.4312L49.3584 58.5208L53.0088 56.5656Z" fill="white"/>
<path d="M47.216 57.0961L44.3768 55.7233L43.6384 56.9401L48.048 59.0721L70.0128 23.0049L68.7856 22.4121L47.7568 56.9401C47.6424 57.1169 47.4136 57.1897 47.216 57.0961Z" fill="#CAEAFF"/>
<path d="M113.1 205.14V201.916C111.914 201.479 107.089 199.638 100.828 196.425C94.1929 193.014 84.5313 187.304 76.2113 179.473C72.5193 175.999 69.4201 171.798 66.9969 166.982C65.0625 163.134 63.5649 158.902 62.5249 154.378C60.7985 146.838 60.9753 140.993 60.9857 140.722V53.2375L60.3409 53.5808V141.575C60.3409 141.638 60.1329 147.462 61.8697 155.043C63.4713 162.022 67.1009 171.964 75.3065 179.681C83.5537 187.439 93.1425 193.107 99.7361 196.498C106.881 200.169 112.133 202.03 112.185 202.041C112.351 202.103 112.466 202.259 112.466 202.436V204.87C112.705 204.994 112.923 205.078 113.1 205.14Z" fill="#79C6F7"/>
<path d="M115.045 202.02C115.045 201.864 115.128 201.729 115.263 201.656L131.498 192.733V191.963L113.943 201.614V205.036L115.045 204.412V202.02Z" fill="#43B6FF"/>
<path d="M150.311 106.953L161.803 115.949L135.647 102.294L137.186 99.8398L150.311 106.953Z" fill="#0984D3" stroke="#244356" stroke-width="1.25718" stroke-miterlimit="10" stroke-linecap="round" stroke-linejoin="round"/>
<path d="M173.17 78.3847C173.17 89.3671 169.291 101.566 162.968 112.476L136.802 98.8207L164.258 56.5759C169.801 60.6631 173.17 68.1095 173.17 78.3847Z" fill="#1991DD" stroke="#244356" stroke-width="1.35627" stroke-miterlimit="10" stroke-linecap="round" stroke-linejoin="round"/>
<path d="M183.144 83.9279C183.144 94.9103 179.265 107.11 172.942 118.019L146.775 104.364L174.231 62.1191C179.774 66.1959 183.144 73.6527 183.144 83.9279Z" fill="#1991DD" stroke="#244356" stroke-width="1.35627" stroke-miterlimit="10" stroke-linecap="round" stroke-linejoin="round"/>
<path d="M164.268 56.5759L174.241 62.1191L146.785 104.364L136.812 98.8311L164.268 56.5759Z" fill="#0F8EDF" stroke="#244356" stroke-width="1.35627" stroke-miterlimit="10" stroke-linecap="round" stroke-linejoin="round"/>
<path d="M167.055 59.0721L164.538 57.6785L137.977 98.5505L146.515 103.293L148.138 100.797L142.886 97.8849C142.688 97.7705 142.542 97.5833 142.49 97.3649C142.438 97.1465 142.48 96.9073 142.594 96.7201L167.055 59.0721Z" fill="#17537A"/>
<path d="M173.077 62.4104L164.538 57.668L163.8 58.8016L170.435 62.4832C170.633 62.5976 170.778 62.7848 170.83 63.0032C170.882 63.2216 170.841 63.4608 170.726 63.648L145.382 102.648L146.515 103.282L173.077 62.4104Z" fill="white"/>
<path d="M148.866 102.658L147.961 104.052L172.63 116.917C178.807 106.038 182.229 94.5152 182.322 84.344C181.407 93.8496 177.913 104.187 172.255 113.963C172.037 114.338 171.548 114.483 171.163 114.275L148.866 102.658Z" fill="#AEDFFF"/>
<path d="M160.202 58.3751C153.733 55.3071 145.111 56.0871 135.647 61.4119C115.565 72.7063 99.2993 100.141 99.2993 122.772C99.2993 133.161 102.731 140.701 108.41 144.716C104.749 142.917 101.452 140.504 98.5817 138.996C91.7281 135.408 87.4745 127.369 87.4745 115.814C87.4745 93.1839 103.709 65.7175 123.791 54.4231C134.732 48.2559 144.622 48.1831 151.258 53.0815L160.202 58.3751Z" fill="#0580CE" stroke="#244356" stroke-width="1.25718" stroke-miterlimit="10" stroke-linecap="round" stroke-linejoin="round"/>
<path d="M135.647 102.294C135.647 102.294 149.718 109.377 149.625 109.574C143.062 121.004 133.952 139.422 123.822 145.142C118.331 148.242 113.11 147.004 108.41 144.716C102.731 140.702 99.2992 133.151 99.2992 122.772C99.2992 100.142 115.565 72.7064 135.647 61.412C145.122 56.0872 153.743 55.3072 160.202 58.3752L163.072 60.0704L123.781 95.3368L135.647 102.294Z" fill="#0984D3" stroke="#244356" stroke-width="1.25718" stroke-miterlimit="10" stroke-linecap="round" stroke-linejoin="round"/>
<path d="M149.625 109.575L161.803 115.939C155.21 127.369 145.902 137.395 135.647 143.208C124.8 149.313 115.076 149.448 108.41 144.706C102.731 140.691 99.2992 133.141 99.2992 122.762C99.2992 100.131 115.565 72.6961 135.647 61.4017C145.122 56.0769 153.743 55.2969 160.202 58.3649C161.21 58.8225 162.157 59.4049 163.072 60.0601L136.001 101.712L135.637 102.305L149.625 109.575Z" fill="#089FFF" stroke="#244356" stroke-width="1.25718" stroke-miterlimit="10" stroke-linecap="round" stroke-linejoin="round"/>
<path d="M160.742 116.251L135.294 102.97C135.106 102.877 134.971 102.7 134.909 102.502C134.857 102.305 134.888 102.086 134.992 101.91L135.346 101.317L162.032 60.2785C161.273 59.7689 160.576 59.3841 159.89 59.0721C157.893 58.1257 155.698 57.5745 153.338 57.4185C154.544 57.7201 155.709 58.1361 156.811 58.6561C157.758 59.0825 158.746 59.6649 159.806 60.4241C160.139 60.6633 160.222 61.1105 160.004 61.4537L133.006 102.96L158.444 116.23C158.631 116.324 158.766 116.49 158.818 116.688C158.881 116.886 158.85 117.104 158.746 117.281C153.795 125.871 147.597 133.307 140.785 138.944C148.304 133.359 155.355 125.382 160.742 116.251Z" fill="#71C8FF"/>
<path d="M154.877 57.5639C153.878 57.4183 152.859 57.3455 151.809 57.3455C146.962 57.3455 141.575 58.9367 136.001 62.0671C116.189 73.2159 100.069 100.453 100.069 122.793C100.069 133.588 103.906 141.575 110.552 145.184C105.83 140.649 103.293 133.494 103.293 124.436C103.293 101.608 119.756 73.7775 140.005 62.3895C145.142 59.4983 150.176 57.8655 154.877 57.5639Z" fill="white"/>
<path d="M152.329 55.8273C151.154 55.6089 149.937 55.5049 148.678 55.5049C143.822 55.5049 138.424 57.0961 132.839 60.2369C113.017 71.3961 96.876 98.6233 96.876 120.931C96.876 128.71 98.8624 135.096 102.544 139.402C99.9336 135.044 98.54 129.376 98.54 122.772C98.54 99.9649 115.014 72.1449 135.273 60.7465C141.263 57.3769 147.087 55.7129 152.329 55.8273Z" fill="#089FFF"/>
<path d="M196.872 99.528C196.903 99.06 196.955 98.592 197.007 98.1136C197.028 97.9784 197.049 97.8536 197.059 97.7184C197.09 97.5 197.122 97.2816 197.163 97.0528C197.184 96.9072 197.215 96.7512 197.246 96.6056C197.288 96.3872 197.33 96.1792 197.371 95.9608C197.392 95.836 197.423 95.7216 197.444 95.5968C197.558 95.0456 197.694 94.5048 197.85 93.9536C197.87 93.86 197.902 93.7664 197.922 93.6832C198.058 93.2152 198.203 92.7368 198.349 92.2688C198.359 92.2272 198.37 92.196 198.38 92.1544C198.536 91.6968 198.702 91.2392 198.869 90.7816C198.91 90.6672 198.952 90.5528 199.004 90.4384C199.15 90.0536 199.306 89.6688 199.472 89.2944C199.493 89.232 199.524 89.1696 199.545 89.1176C199.732 88.6912 199.919 88.2752 200.127 87.8488C200.179 87.7344 200.231 87.6304 200.283 87.516C200.45 87.1832 200.616 86.8504 200.782 86.528C200.834 86.424 200.886 86.32 200.938 86.2264C201.157 85.8104 201.386 85.4048 201.625 84.9992C201.666 84.9264 201.718 84.8536 201.76 84.7808C201.968 84.4272 202.176 84.084 202.394 83.7304C202.457 83.6264 202.519 83.5224 202.592 83.4288C202.862 83.0128 203.143 82.5968 203.424 82.1808C203.466 82.1184 203.507 82.056 203.559 81.9936C203.861 81.5776 204.162 81.1616 204.474 80.756C204.516 80.704 204.558 80.6416 204.599 80.5896C204.994 80.08 205.4 79.5912 205.806 79.1128C205.858 79.0504 205.91 78.988 205.972 78.9256C206.222 78.6344 206.482 78.3536 206.742 78.0728L206.794 78.0208C207.074 77.7296 207.355 77.4384 207.636 77.1576L207.813 76.9808C208.187 76.6168 208.562 76.2736 208.936 75.9304C208.967 75.8992 209.009 75.868 209.04 75.8368C209.435 75.4936 209.841 75.1608 210.236 74.8384C210.309 74.776 210.392 74.7136 210.465 74.6616C210.86 74.3496 211.266 74.0584 211.671 73.7776C211.744 73.7256 211.817 73.684 211.89 73.632C212.316 73.3512 212.753 73.0704 213.19 72.8208C213.543 72.6232 213.886 72.436 214.23 72.2592C214.334 72.2072 214.427 72.1656 214.531 72.1136C214.791 71.9888 215.051 71.864 215.311 71.76C215.405 71.7184 215.498 71.6768 215.592 71.6456C215.831 71.5416 216.081 71.4584 216.32 71.3648C216.382 71.344 216.445 71.3232 216.497 71.3024C216.798 71.1984 217.09 71.1048 217.381 71.032C217.547 70.98 217.724 70.9488 217.89 70.9072C217.974 70.8864 218.057 70.8656 218.13 70.8448C218.379 70.7928 218.629 70.7408 218.868 70.7096C219.242 70.6472 219.606 70.616 219.97 70.5952C220.043 70.5952 220.116 70.5848 220.189 70.5848C220.511 70.5744 220.834 70.5744 221.146 70.5952C221.198 70.5952 221.25 70.6056 221.312 70.6056C221.562 70.6264 221.811 70.6576 222.05 70.6888C222.123 70.6992 222.206 70.7096 222.279 70.7304C222.56 70.7824 222.83 70.8448 223.101 70.9176C223.111 70.9176 223.122 70.928 223.142 70.928C223.392 71.0008 223.642 71.0944 223.881 71.188C223.954 71.2192 224.026 71.2504 224.089 71.2816C224.297 71.3752 224.494 71.4688 224.692 71.5728C224.754 71.604 224.827 71.6352 224.89 71.6768L219.149 68.2968C219.118 68.276 219.086 68.2656 219.055 68.2448C219.024 68.224 218.982 68.2136 218.951 68.1928C218.754 68.0888 218.556 67.9848 218.348 67.9016C218.306 67.8808 218.275 67.86 218.234 67.8496L218.14 67.8184C217.901 67.7248 217.651 67.6312 217.402 67.5584C217.391 67.5584 217.381 67.548 217.37 67.548H217.36C217.09 67.4752 216.819 67.4128 216.538 67.3608C216.507 67.3504 216.476 67.34 216.445 67.34C216.403 67.3296 216.362 67.3296 216.31 67.3296C216.07 67.288 215.821 67.2568 215.561 67.2464C215.519 67.2464 215.478 67.236 215.446 67.236H215.405C215.093 67.2152 214.77 67.2152 214.448 67.2256H214.354C214.313 67.2256 214.271 67.236 214.23 67.236C213.866 67.2568 213.502 67.288 213.127 67.3504C212.888 67.392 212.638 67.4336 212.389 67.4856L212.139 67.548C211.983 67.5792 211.838 67.6208 211.682 67.6624C211.671 67.6624 211.65 67.6728 211.64 67.6728C211.349 67.756 211.047 67.8392 210.756 67.9432C210.694 67.964 210.631 67.9848 210.579 68.0056C210.34 68.0888 210.101 68.1824 209.851 68.2864C209.82 68.2968 209.789 68.3072 209.758 68.328C209.695 68.3488 209.633 68.38 209.581 68.4112C209.321 68.5256 209.061 68.64 208.801 68.7648C208.697 68.8168 208.603 68.8584 208.499 68.9104C208.156 69.0872 207.802 69.264 207.459 69.472C207.022 69.7216 206.586 70.0024 206.159 70.2832C206.086 70.3352 206.014 70.3768 205.941 70.4288C205.535 70.7096 205.13 71.0008 204.734 71.3128C204.662 71.3752 204.578 71.4376 204.506 71.5C204.1 71.8224 203.694 72.1448 203.31 72.4984C203.278 72.5296 203.237 72.5608 203.206 72.592C202.821 72.9248 202.446 73.2784 202.082 73.6424C202.041 73.6736 202.01 73.7152 201.968 73.7464C201.947 73.7672 201.926 73.7984 201.895 73.8192C201.614 74.1 201.334 74.3912 201.053 74.6824L201.001 74.7344C200.741 75.0152 200.481 75.296 200.231 75.5872C200.21 75.6184 200.179 75.6392 200.158 75.6704C200.127 75.7016 200.096 75.7432 200.065 75.7848C199.649 76.2632 199.243 76.752 198.858 77.2616C198.848 77.272 198.838 77.2928 198.827 77.3032L198.734 77.428C198.422 77.8336 198.12 78.2496 197.818 78.6656L197.725 78.7904C197.714 78.8112 197.704 78.832 197.683 78.8528C197.402 79.2584 197.122 79.6744 196.851 80.1008C196.82 80.1424 196.799 80.184 196.768 80.2256C196.726 80.288 196.695 80.3504 196.654 80.4128C196.435 80.756 196.227 81.1096 196.019 81.4632C195.988 81.5152 195.957 81.5672 195.926 81.6296L195.894 81.692C195.655 82.0976 195.437 82.5032 195.208 82.9192C195.187 82.9504 195.166 82.9816 195.156 83.0232C195.125 83.0856 195.083 83.1584 195.052 83.2312C194.875 83.564 194.709 83.8864 194.553 84.2192C194.522 84.292 194.48 84.3544 194.449 84.4272C194.428 84.4688 194.407 84.5104 194.397 84.552C194.199 84.968 194.002 85.3944 193.814 85.8208C193.804 85.8312 193.804 85.852 193.794 85.8624C193.773 85.904 193.752 85.956 193.731 85.9976C193.565 86.3824 193.409 86.7568 193.263 87.1416C193.242 87.204 193.211 87.2664 193.19 87.3288C193.17 87.3808 193.159 87.4328 193.138 87.4848C192.962 87.9424 192.795 88.4 192.65 88.8576C192.65 88.868 192.639 88.8784 192.639 88.8888C192.629 88.92 192.618 88.9512 192.608 88.972C192.452 89.44 192.306 89.908 192.182 90.3864C192.161 90.4488 192.14 90.5008 192.13 90.5632C192.119 90.5944 192.119 90.6256 192.109 90.6568C191.963 91.208 191.828 91.7488 191.703 92.3C191.693 92.352 191.682 92.3936 191.672 92.4456C191.662 92.5184 191.641 92.5912 191.63 92.664C191.589 92.8824 191.547 93.0904 191.506 93.3088C191.474 93.4544 191.454 93.6104 191.422 93.756C191.381 93.9744 191.35 94.2032 191.318 94.4216C191.308 94.5256 191.287 94.6296 191.266 94.7336C191.266 94.7648 191.266 94.7856 191.256 94.8168C191.194 95.2848 191.152 95.7632 191.121 96.2312C191.11 96.3352 191.11 96.4288 191.1 96.5328C191.069 97.0112 191.048 97.4896 191.058 97.9576C191.069 103.147 192.91 106.798 195.863 108.514L201.604 111.894C198.65 110.178 196.82 106.527 196.799 101.338C196.799 100.87 196.82 100.391 196.841 99.9128C196.851 99.7256 196.862 99.632 196.872 99.528Z" fill="#3E7496" stroke="#244356" stroke-width="0.849766" stroke-miterlimit="10" stroke-linecap="round" stroke-linejoin="round"/>
<path d="M213.21 72.8415C222.3 67.5895 229.684 71.8015 229.715 82.2535C229.746 92.6951 222.404 105.414 213.314 110.666C204.225 115.918 196.83 111.696 196.799 101.254C196.778 90.8127 204.121 78.0935 213.21 72.8415Z" fill="#5C9BC4" stroke="#244356" stroke-width="0.849766" stroke-miterlimit="10" stroke-linecap="round" stroke-linejoin="round"/>
<path d="M218.65 81.0578C220.532 79.9762 222.092 80.673 222.092 83.5226C222.071 86.4034 220.532 88.7122 218.764 89.7314C216.923 90.7922 215.342 90.2098 215.342 87.2146C215.342 84.4898 216.663 82.2018 218.65 81.0578ZM218.722 82.181C217.391 82.9506 216.882 84.6874 216.882 86.4138C216.882 88.2962 217.454 89.3258 218.722 88.5978C219.929 87.901 220.605 86.133 220.563 84.3338C220.563 82.545 219.929 81.4842 218.722 82.181ZM217.672 96.3458L209.3 86.445L210.527 85.7378L218.899 95.6386L217.672 96.3458ZM209.362 92.3002C211.245 91.2186 212.805 91.9154 212.805 94.7858C212.784 97.6458 211.245 99.9546 209.477 100.974C207.657 102.024 206.076 101.442 206.076 98.4362C206.076 95.7218 207.366 93.4442 209.362 92.3002ZM209.425 93.4234C208.094 94.193 207.584 95.9298 207.584 97.6562C207.584 99.5386 208.156 100.568 209.425 99.8402C210.61 99.1538 211.307 97.3754 211.286 95.5658C211.286 93.777 210.631 92.7266 209.425 93.4234Z" fill="#17374C"/>
<path d="M214.157 70.2833C214.448 70.1793 214.729 70.0961 215.02 70.0129C215.186 69.9713 215.342 69.9297 215.509 69.8881L215.738 69.8361C215.977 69.7841 216.216 69.7425 216.455 69.7009C216.809 69.6489 217.162 69.6177 217.506 69.5969L217.714 69.5865C218.015 69.5761 218.317 69.5761 218.618 69.5969L218.816 69.0977L218.774 69.6073C219.014 69.6281 219.242 69.6489 219.471 69.6905L219.679 69.7217C219.95 69.7737 220.21 69.8257 220.459 69.8985C220.646 69.9505 220.823 70.0129 220.979 70.0753C220.865 70.0753 220.75 70.0649 220.626 70.0649C220.48 70.0649 220.345 70.0649 220.199 70.0753L219.97 70.0857C219.596 70.1065 219.222 70.1377 218.826 70.2001C218.577 70.2417 218.317 70.2833 218.057 70.3457L217.901 70.3873C217.63 70.4497 217.454 70.4913 217.277 70.5433C216.975 70.6265 216.663 70.7201 216.351 70.8241C216.341 70.8241 216.226 70.8657 216.216 70.8761C215.914 70.9905 215.665 71.0737 215.415 71.1777L215.249 71.2505L215.124 71.3025C214.864 71.4169 214.594 71.5417 214.323 71.6665L214.011 71.8225C213.658 71.9993 213.304 72.1865 212.95 72.3945C212.503 72.6545 212.066 72.9353 211.63 73.2265L211.401 73.3721C210.985 73.6529 210.569 73.9545 210.163 74.2665L210.007 74.3913C209.508 74.7761 209.102 75.1193 208.707 75.4625L208.603 75.5561C208.218 75.8993 207.834 76.2529 207.459 76.6273L207.282 76.8041C206.991 77.0953 206.71 77.3865 206.43 77.6777C206.118 78.0105 205.858 78.3017 205.598 78.5929L205.483 78.7177C205.005 79.2689 204.599 79.7681 204.204 80.2777C204.204 80.2777 204.131 80.3817 204.121 80.3817C203.757 80.8497 203.455 81.2761 203.154 81.7025L203.018 81.8897C202.727 82.2953 202.457 82.7217 202.176 83.1481L201.978 83.4601C201.76 83.8033 201.542 84.1569 201.334 84.5105L201.198 84.7393C200.959 85.1449 200.73 85.5609 200.512 85.9769L200.356 86.2785C200.179 86.6113 200.013 86.9545 199.846 87.2873L199.68 87.6201C199.472 88.0465 199.285 88.4729 199.098 88.8993L199.046 89.0241C198.858 89.4713 198.692 89.8561 198.546 90.2513L198.411 90.6049C198.234 91.0625 198.068 91.5305 197.912 91.9881C197.714 92.5809 197.569 93.0593 197.434 93.5377L197.35 93.8185C197.194 94.3697 197.059 94.9313 196.945 95.4825L196.882 95.7945C196.83 96.0753 196.789 96.2833 196.747 96.5017L196.664 96.9593C196.622 97.1777 196.602 97.3961 196.56 97.6145L196.498 98.0409C196.435 98.5193 196.394 99.0081 196.352 99.4761L196.331 99.7881C196.3 100.266 196.279 100.755 196.279 101.244C196.29 104.302 196.914 106.912 198.078 108.93C195.946 107.016 194.792 103.813 194.771 99.7257C194.771 99.2681 194.792 98.8001 194.813 98.3321L194.834 98.0409C194.865 97.5833 194.906 97.1257 194.969 96.6577L195.021 96.2729C195.052 96.0441 195.083 95.8361 195.114 95.6281L195.395 94.2033C195.51 93.6625 195.645 93.1217 195.79 92.5809L195.832 92.4249C195.998 91.8425 196.134 91.3849 196.29 90.9169C196.477 90.3553 196.643 89.8977 196.81 89.4505L196.945 89.1177C197.09 88.7329 197.246 88.3585 197.413 87.9841L197.018 87.5993L197.486 87.8073C197.673 87.3913 197.86 86.9753 198.058 86.5593L198.182 86.2993C198.38 85.9041 198.536 85.5817 198.713 85.2593L198.869 84.9577C199.087 84.5521 199.316 84.1465 199.545 83.7513L199.638 83.5953C199.878 83.1793 200.096 82.8361 200.304 82.4929L200.491 82.1913C200.762 81.7753 201.032 81.3697 201.313 80.9641L201.396 80.8393C201.739 80.3609 202.03 79.9553 202.342 79.5497L202.467 79.3833C202.852 78.8841 203.258 78.4057 203.663 77.9273C203.663 77.9273 203.746 77.8337 203.746 77.8233C204.069 77.4489 204.329 77.1681 204.578 76.8873C204.901 76.5441 205.171 76.2633 205.452 75.9929L205.629 75.8265C205.993 75.4729 206.357 75.1297 206.742 74.7969L206.502 74.3185L206.846 74.7033C207.23 74.3601 207.626 74.0377 208.021 73.7257L208.239 73.5489C208.634 73.2473 209.03 72.9561 209.435 72.6857L209.643 72.5505C210.07 72.2697 210.486 71.9993 210.922 71.7497C211.266 71.5521 211.598 71.3753 211.942 71.2089L212.181 71.0841C212.482 70.9385 212.742 70.8241 212.992 70.7097L213.262 70.5953C213.502 70.5017 213.73 70.4081 213.97 70.3249L213.98 69.7737L214.157 70.2833ZM221.312 70.2209H221.322L221.166 70.6057L221.187 70.1689L221.312 70.2209Z" fill="#2B4B60"/>
<path d="M229.206 82.2537C229.237 92.5185 221.988 105.061 213.065 110.219C209.737 112.133 206.586 112.809 203.954 112.185C205.899 111.925 207.958 111.176 210.018 109.991C219.232 104.676 226.71 91.7281 226.678 81.1305C226.668 77.0433 225.545 73.7465 223.486 71.6145C227.084 72.9041 229.185 76.7313 229.206 82.2537Z" fill="#3E7496"/>
<path d="M197.319 101.254C197.288 90.9894 204.537 78.4471 213.47 73.2887C217.714 70.8343 221.686 70.4287 224.64 72.1239C226.127 72.9767 227.271 74.3183 228.051 76.0655C227.313 75.0359 226.398 74.2143 225.326 73.6319C224.11 72.9663 222.737 72.6335 221.26 72.6335C219.066 72.6335 216.653 73.3615 214.157 74.7967C205.577 79.7471 198.63 91.7902 198.661 101.639C198.671 105.872 199.992 109.273 202.394 111.207C202.862 111.592 203.372 111.904 203.902 112.164C202.946 111.935 202.072 111.529 201.282 110.968C198.734 109.158 197.33 105.705 197.319 101.254Z" fill="#CAEAFF"/>
<path d="M168.99 44.5015V44.5327C169.01 44.7615 169.01 45.0007 169.01 45.2295C169.031 45.4479 169.042 45.6767 169.062 45.8951C169.062 45.9471 169.083 45.9991 169.083 46.0615C169.083 46.0927 169.104 46.1447 169.104 46.1967C169.125 46.3319 169.125 46.4671 169.135 46.5815C169.166 46.8103 169.198 47.0495 169.239 47.2679C169.26 47.3511 169.27 47.4343 169.291 47.5383C169.312 47.5903 169.322 47.6527 169.343 47.7047C169.364 47.7879 169.374 47.8919 169.395 47.9751C169.447 48.2247 169.51 48.4743 169.582 48.7135C169.603 48.7759 169.634 48.8279 169.645 48.9007C169.666 48.9631 169.697 49.0463 169.707 49.1191C169.738 49.2335 169.79 49.3479 169.822 49.4727C169.905 49.7015 170.009 49.9199 170.102 50.1383C170.123 50.1695 170.134 50.2007 170.154 50.2527C170.154 50.2527 170.154 50.2735 170.175 50.2839C170.321 50.6167 170.508 50.9495 170.706 51.2511C170.706 51.2719 170.726 51.2719 170.726 51.2823C170.758 51.3135 170.789 51.3655 170.81 51.3967C170.997 51.6671 171.174 51.8959 171.382 52.1351C171.444 52.2183 171.517 52.3015 171.6 52.3847C171.766 52.5719 171.954 52.7383 172.13 52.9047C172.214 52.9671 172.276 53.0399 172.359 53.1023C172.63 53.2999 172.89 53.5079 173.181 53.6743L177.091 55.9415V55.9207C176.873 55.8063 176.686 55.6503 176.488 55.5047C176.426 55.4423 176.342 55.3695 176.249 55.3071C176.062 55.1407 175.895 54.9535 175.718 54.7767C175.656 54.7143 175.573 54.6311 175.5 54.5479C175.302 54.3191 175.115 54.0799 174.949 53.8095C174.918 53.7575 174.886 53.7263 174.866 53.6951C174.647 53.3623 174.46 53.0087 174.283 52.6447C174.262 52.6135 174.252 52.5823 174.231 52.5407C174.096 52.2079 173.961 51.8751 173.826 51.5007C173.805 51.4383 173.794 51.3655 173.763 51.3031C173.649 50.9183 173.545 50.5231 173.462 50.1175C173.441 50.0551 173.441 50.0031 173.43 49.9303C173.347 49.5143 173.285 49.0567 173.233 48.6095C173.233 48.5575 173.233 48.5055 173.212 48.4639C173.191 48.1935 173.181 47.9127 173.16 47.6319C173.139 47.4031 173.139 47.1431 173.139 46.8935C173.139 46.3631 173.16 45.8119 173.202 45.2399C173.202 45.2087 173.202 45.1567 173.222 45.1047C173.254 44.5535 173.326 43.9815 173.42 43.4303V43.3991C173.503 42.8271 173.618 42.2759 173.753 41.7143C173.753 41.6623 173.774 41.6103 173.784 41.5687C173.919 41.0175 174.054 40.4663 174.221 39.9151C174.242 39.8839 174.242 39.8527 174.252 39.8111C174.418 39.2391 174.616 38.6775 174.824 38.1055C174.845 38.0743 174.855 38.0431 174.876 38.0015C175.074 37.4503 175.292 36.8991 175.531 36.3479C175.552 36.3167 175.562 36.2855 175.583 36.2647C175.812 35.6927 176.082 35.1415 176.353 34.6111C176.384 34.5591 176.405 34.5071 176.436 34.4655C176.665 34.0183 176.904 33.5607 177.154 33.1239C177.216 32.9887 177.289 32.8743 177.372 32.7599C177.518 32.4895 177.694 32.2399 177.84 31.9695C178.027 31.6679 178.225 31.3559 178.422 31.0543C178.745 30.5655 179.078 30.0871 179.41 29.6191C179.795 29.1199 180.18 28.6207 180.575 28.1319L180.596 28.1111C181.002 27.6431 181.397 27.1751 181.802 26.7383L181.906 26.6343C182.312 26.2183 182.686 25.8127 183.092 25.4487C183.144 25.3967 183.196 25.3447 183.238 25.3135C183.643 24.9495 184.038 24.5751 184.454 24.2423C184.506 24.2111 184.558 24.1591 184.59 24.1279C185.026 23.7743 185.463 23.4623 185.89 23.1607C185.921 23.1295 185.952 23.1087 185.973 23.0983C186.441 22.7655 186.93 22.4639 187.408 22.1831C187.897 21.9127 188.365 21.6631 188.833 21.4447C188.864 21.4447 188.895 21.4239 188.916 21.4135C189.186 21.2991 189.446 21.1847 189.696 21.0807C189.894 20.9975 190.081 20.9351 190.278 20.8623C190.299 20.8623 190.33 20.8415 190.362 20.8311C190.798 20.6959 191.214 20.5815 191.61 20.4775C191.662 20.4775 191.693 20.4567 191.745 20.4567C192.15 20.3735 192.546 20.3111 192.93 20.2695C192.962 20.2695 193.014 20.2487 193.066 20.2487C193.43 20.2175 193.783 20.2175 194.147 20.2279H194.366C194.73 20.2591 195.083 20.2903 195.437 20.3631C195.499 20.3839 195.551 20.4151 195.624 20.4151C195.926 20.4775 196.206 20.5607 196.498 20.6647C196.882 20.8103 197.246 20.9871 197.579 21.1847L193.45 18.7823C193.097 18.5847 192.733 18.4183 192.348 18.2831C192.327 18.2623 192.317 18.2519 192.296 18.2519C192.026 18.1479 191.766 18.0855 191.474 18.0335C191.422 18.0127 191.36 17.9815 191.308 17.9815C191.287 17.9815 191.287 17.9607 191.287 17.9607C191.017 17.9087 190.736 17.8775 190.455 17.8463H190.237C190.154 17.8255 190.091 17.8255 189.998 17.8255C189.914 17.8255 189.81 17.8047 189.717 17.8047C189.498 17.8047 189.27 17.8255 189.051 17.8255C188.999 17.8463 188.968 17.8463 188.916 17.8463C188.885 17.8463 188.833 17.8671 188.781 17.8671C188.666 17.8879 188.531 17.8879 188.417 17.8983C188.198 17.9295 188.001 17.9607 187.782 18.0127C187.73 18.0127 187.668 18.0335 187.595 18.0439C187.564 18.0647 187.512 18.0647 187.481 18.0751C187.377 18.0959 187.294 18.1063 187.2 18.1271C187.002 18.1791 186.815 18.2415 186.618 18.2935C186.482 18.3247 186.347 18.3767 186.212 18.4287C186.191 18.4287 186.16 18.4495 186.129 18.4495C186.098 18.4703 186.066 18.4807 186.025 18.4807C185.942 18.5119 185.879 18.5327 185.786 18.5847C185.671 18.6159 185.557 18.6679 185.453 18.6991C185.255 18.7823 185.068 18.8655 184.881 18.9487C184.829 18.9695 184.798 18.9799 184.766 19.0007C184.735 19.0215 184.704 19.0319 184.662 19.0527C184.548 19.1047 184.413 19.1567 184.298 19.2191C184.101 19.3231 183.914 19.4167 183.716 19.5207C183.57 19.6039 183.414 19.6871 183.269 19.7911C183.217 19.8119 183.165 19.8431 183.123 19.8743C182.926 19.9887 182.718 20.1031 182.52 20.2383C182.322 20.3527 182.114 20.5087 181.906 20.6439C181.886 20.6647 181.854 20.6751 181.844 20.6959C181.813 20.7167 181.782 20.7479 181.761 20.7583C181.615 20.8623 181.438 20.9767 181.293 21.0807C181.095 21.2471 180.877 21.4031 180.679 21.5695C180.596 21.6215 180.534 21.6839 180.461 21.7359C180.409 21.7879 180.357 21.8191 180.315 21.8503C180.232 21.9335 180.128 21.9959 180.034 22.0791C179.837 22.2663 179.618 22.4431 179.4 22.6303C179.296 22.7343 179.202 22.8175 179.119 22.9111C179.067 22.9631 179.015 22.9943 178.974 23.0463C178.911 23.0983 178.838 23.1607 178.786 23.2127C178.568 23.4103 178.37 23.6183 178.183 23.8159C178.048 23.9511 177.913 24.0967 177.778 24.2319L177.674 24.3359C177.642 24.3671 177.611 24.3983 177.59 24.4399C177.393 24.6375 177.206 24.8455 177.018 25.0535C176.831 25.2511 176.654 25.4695 176.467 25.7087C176.446 25.7087 176.446 25.7295 176.446 25.7295C176.259 25.9479 176.082 26.1663 175.916 26.3847C175.698 26.6655 175.479 26.9359 175.282 27.2167C174.959 27.6535 174.668 28.0695 174.377 28.5167C174.346 28.5479 174.314 28.5999 174.273 28.6519C174.075 28.9535 173.888 29.2655 173.701 29.5879C173.566 29.7855 173.43 29.9935 173.295 30.2015C173.264 30.2535 173.243 30.3055 173.212 30.3471C173.15 30.4615 173.077 30.5967 173.014 30.7111C172.869 30.9607 172.734 31.1999 172.598 31.4495C172.494 31.6471 172.401 31.8551 172.276 32.0527C172.255 32.1047 172.224 32.1567 172.214 32.1983C172.193 32.2295 172.162 32.2607 172.151 32.3127C172.037 32.5623 171.922 32.8119 171.787 33.0615C171.683 33.2903 171.59 33.5087 171.486 33.7479C171.465 33.7791 171.454 33.8103 171.434 33.8519C171.413 33.8831 171.413 33.9039 171.402 33.9351C171.34 34.1015 171.257 34.2679 171.184 34.4343C171.08 34.6631 170.997 34.9023 170.903 35.1311C170.851 35.2767 170.789 35.4327 170.737 35.5783C170.716 35.6095 170.706 35.6407 170.706 35.6823C170.685 35.7343 170.674 35.7863 170.654 35.8279C170.55 36.0567 170.466 36.3167 170.383 36.5455C170.3 36.7951 170.238 37.0447 170.154 37.2943C170.154 37.3255 170.134 37.3463 170.123 37.3775C170.123 37.4087 170.102 37.4399 170.102 37.4815C170.04 37.6791 169.988 37.8663 169.936 38.0535C169.874 38.3031 169.801 38.5527 169.738 38.8023C169.707 38.9167 169.686 39.0207 169.655 39.1351C169.655 39.1871 169.634 39.2391 169.624 39.2807C169.603 39.3639 169.593 39.4679 169.572 39.5511C169.51 39.8007 169.458 40.0503 169.426 40.2999C169.374 40.5183 169.343 40.7471 169.312 40.9655C169.291 40.9863 169.291 40.9863 169.291 40.9967V41.0175C169.26 41.2463 169.229 41.5063 169.187 41.7351C169.156 41.9639 169.135 42.2031 169.104 42.4319C169.104 42.5151 169.083 42.5983 169.083 42.6607C169.083 42.7127 169.083 42.7647 169.062 42.8063C169.062 42.9103 169.042 43.0039 169.042 43.1287C169.021 43.3471 169.01 43.5759 169.01 43.8151C169 44.0647 168.99 44.2831 168.99 44.5015Z" fill="#4189B7" stroke="#244356" stroke-width="0.785842" stroke-miterlimit="10" stroke-linecap="round" stroke-linejoin="round"/>
<path d="M187.398 22.1832C179.494 26.7488 173.108 37.8144 173.129 46.8936C173.15 55.9832 179.587 59.644 187.491 55.0784C195.395 50.5128 201.781 39.4576 201.75 30.368C201.729 21.2888 195.302 17.6176 187.398 22.1832Z" fill="#76BAE5" stroke="#244356" stroke-width="0.785842" stroke-miterlimit="10" stroke-linecap="round" stroke-linejoin="round"/>
<path d="M179.015 51.3449C181.002 53.0505 184.059 53.1025 187.481 51.1265C192.941 47.9649 197.423 40.768 198.193 34.2992C198.297 33.6336 198.328 32.9784 198.328 32.344C198.307 27.872 196.238 25.1056 193.149 24.7104C194.657 25.9584 195.551 28.1736 195.572 31.1272C195.572 31.6992 195.541 32.2816 195.468 32.864C194.771 39.3953 190.226 46.7273 184.725 49.9201C182.634 51.1265 180.669 51.5841 179.015 51.3449Z" fill="#4189B7" stroke="#244356" stroke-width="0.785842" stroke-miterlimit="10" stroke-linecap="round" stroke-linejoin="round"/>
<path d="M194.584 25.6257C196.643 26.6033 197.839 29.0057 197.849 32.3545C197.849 32.7809 197.829 33.1865 197.797 33.5609L195.967 32.5937C196.009 32.1049 196.04 31.6161 196.04 31.1273C196.029 28.9121 195.52 27.0193 194.584 25.6257Z" fill="#2A5977"/>
<path d="M176.571 44.9073C176.592 47.8817 177.486 50.0865 179.005 51.3449C180.669 51.5841 182.624 51.1265 184.714 49.9201C190.715 46.4569 195.572 38.0329 195.551 31.1377C195.53 28.1737 194.636 25.9793 193.128 24.7105C191.464 24.4713 189.509 24.9185 187.398 26.1353C181.397 29.5985 176.54 38.0017 176.571 44.9073Z" fill="#76BAE5" stroke="#244356" stroke-width="0.785842" stroke-miterlimit="10" stroke-linecap="round" stroke-linejoin="round"/>
<path d="M188.458 18.7615C188.261 18.8135 188.053 18.8655 187.845 18.9279L187.512 19.0319L187.356 19.0839C187.054 19.1879 186.857 19.2607 186.659 19.3439C186.462 19.4167 186.274 19.4999 186.077 19.5935L185.962 19.6455C185.952 19.6455 185.858 19.6975 185.848 19.6975C185.734 19.7495 185.598 19.8119 185.474 19.8743C185.276 19.9679 185.078 20.0719 184.87 20.1863C184.714 20.2695 184.558 20.3527 184.402 20.4463L184.257 20.5295C184.049 20.6543 183.841 20.7791 183.633 20.9143C183.425 21.0495 183.217 21.1847 183.009 21.3303C183.009 21.3303 182.894 21.4135 182.884 21.4135C182.686 21.5487 182.53 21.6631 182.374 21.7775C182.156 21.9335 181.948 22.0999 181.73 22.2663L181.605 22.3703L181.511 22.4431L181.085 22.7967C180.866 22.9735 180.648 23.1711 180.44 23.3583L180.138 23.6391L179.993 23.7743L179.795 23.9511C179.587 24.1487 179.379 24.3567 179.182 24.5647C179.046 24.6999 178.911 24.8455 178.776 24.9807L178.682 25.0847L178.589 25.1887L178.027 25.8127L177.466 26.4679C177.268 26.7071 177.081 26.9359 176.904 27.1543C176.686 27.4351 176.467 27.7159 176.259 28.0071C175.947 28.4335 175.635 28.8703 175.344 29.3175C175.344 29.3279 175.282 29.4111 175.282 29.4215C175.084 29.7127 174.928 29.9727 174.772 30.2327L174.512 30.6383C174.429 30.7631 174.346 30.8983 174.273 31.0335L174.19 31.1791L173.867 31.7615C173.763 31.9383 173.659 32.1255 173.566 32.3023C173.462 32.5103 173.358 32.7079 173.254 32.9159L173.17 33.0615L173.108 33.1759C172.983 33.4255 172.858 33.6855 172.744 33.9351C172.63 34.1639 172.526 34.4031 172.422 34.6423L172.359 34.7879L172.13 35.3287C172.037 35.5679 171.933 35.7967 171.85 36.0359C171.798 36.1815 171.735 36.3271 171.683 36.4727L171.642 36.5975C171.642 36.5975 171.59 36.7431 171.59 36.7535C171.506 37.0031 171.413 37.2423 171.33 37.4919C171.246 37.7415 171.163 37.9911 171.09 38.2407L171.028 38.4383C170.966 38.6463 170.914 38.8231 170.862 39.0103C170.789 39.2703 170.726 39.5199 170.664 39.7799L170.487 40.5495C170.435 40.7887 170.383 41.0487 170.331 41.2983C170.29 41.5271 170.248 41.7559 170.217 41.9847C170.175 42.2759 170.134 42.5255 170.102 42.7647C170.071 43.0039 170.05 43.2431 170.019 43.4823L169.967 44.1895C169.946 44.4287 169.936 44.6575 169.936 44.8967C169.926 45.1151 169.926 45.3335 169.926 45.5519C169.926 45.8327 169.936 46.0719 169.946 46.3007C169.957 46.5399 169.967 46.7687 169.988 46.9975C169.988 46.9975 170.009 47.1639 170.009 47.1743L170.019 47.3095L170.061 47.7151C170.092 47.9543 170.123 48.1831 170.165 48.4119L170.196 48.5679C170.196 48.5679 170.217 48.6823 170.217 48.6927L170.31 49.1503C170.352 49.3271 170.394 49.5039 170.446 49.6703C170.394 49.5455 170.331 49.4103 170.279 49.2751L170.165 48.9319L170.102 48.7343L170.04 48.5575C169.978 48.3287 169.915 48.0999 169.853 47.8503L169.822 47.7047L169.801 47.5799L169.718 47.1639C169.686 46.9559 169.645 46.7375 169.624 46.5087L169.593 46.2279L169.572 46.0511L169.562 45.9055C169.541 45.6247 169.52 45.4063 169.51 45.1879C169.499 44.9591 169.489 44.7407 169.489 44.5119C169.489 44.2623 169.489 44.0543 169.499 43.8359C169.51 43.6071 169.52 43.3887 169.53 43.1599L169.572 42.5879C169.603 42.2551 169.624 42.0263 169.655 41.7871C169.686 41.5583 169.718 41.3191 169.759 41.0799C169.801 40.8095 169.842 40.5911 169.884 40.3727C169.926 40.1231 169.978 39.8839 170.03 39.6343L170.092 39.3743L170.134 39.2183L170.206 38.9063C170.269 38.6567 170.331 38.4071 170.404 38.1575C170.456 37.9703 170.508 37.7935 170.56 37.6063C170.56 37.6063 170.612 37.4399 170.612 37.4295C170.695 37.1591 170.768 36.9199 170.851 36.6807L171.101 35.9631L171.153 35.8279L171.361 35.2767C171.444 35.0479 171.538 34.8191 171.631 34.5903L171.922 33.9143L172.234 33.2279C172.349 32.9783 172.474 32.7287 172.598 32.4791L172.661 32.3647L172.734 32.2295L173.035 31.6367C173.118 31.4807 173.212 31.3143 173.306 31.1583L173.659 30.5447L173.742 30.3991C173.815 30.2743 173.888 30.1599 173.961 30.0455L174.221 29.6191C174.377 29.3695 174.522 29.1199 174.689 28.8703L174.782 28.7247C175.074 28.2983 175.365 27.8719 175.677 27.4559C175.885 27.1751 176.093 26.9047 176.301 26.6343C176.478 26.4159 176.644 26.1975 176.821 25.9895C177.018 25.7503 177.206 25.5423 177.382 25.3239C177.559 25.1159 177.746 24.9183 177.934 24.7207L178.017 24.6271L178.121 24.5231C178.277 24.3567 178.391 24.2319 178.506 24.1175C178.703 23.9199 178.901 23.7223 179.098 23.5351L179.712 22.9631C179.92 22.7759 180.128 22.5991 180.336 22.4223L180.731 22.0999L180.846 22.0063L180.97 21.9023C181.168 21.7463 181.376 21.5903 181.584 21.4343L181.969 21.1639C181.969 21.1639 182.083 21.0911 182.083 21.0807L182.198 20.9975C182.395 20.8623 182.593 20.7271 182.79 20.6023C182.988 20.4775 183.186 20.3527 183.383 20.2383L183.518 20.1551C183.664 20.0719 183.81 19.9887 183.966 19.9055C184.153 19.8015 184.35 19.7079 184.538 19.6143L184.818 19.4791L184.974 19.4063L185.099 19.3439C185.286 19.2607 185.474 19.1775 185.65 19.1047C185.838 19.0319 186.025 18.9591 186.212 18.8967L186.347 18.8551L186.763 18.7199C186.961 18.6575 187.148 18.6055 187.335 18.5639L187.502 18.5223L187.616 18.5015C187.616 18.5015 187.803 18.4599 187.814 18.4599C188.105 18.3975 188.302 18.3663 188.5 18.3455C188.583 18.3351 188.666 18.3247 188.76 18.3143C188.76 18.3143 188.926 18.3039 188.926 18.2935L189.062 18.2831C189.322 18.2623 189.54 18.2415 189.748 18.2623L189.904 18.2727L190.018 18.2831L190.226 18.2935L190.445 18.3039C190.684 18.3247 190.913 18.3559 191.142 18.3975H191.131C190.882 18.3767 190.663 18.4079 190.424 18.4183L190.289 18.4287L190.154 18.4391C189.956 18.4599 189.852 18.4703 189.758 18.4807C189.54 18.5119 189.322 18.5431 189.103 18.5847C189.093 18.5847 188.989 18.6055 188.989 18.6055L188.864 18.6367L188.718 18.6679L188.458 18.7615Z" fill="white"/>
<path d="M173.607 46.8936C173.586 37.9808 179.878 27.0816 187.637 22.5992C190.975 20.6752 194.178 20.1968 196.654 21.268C197.298 21.5488 197.87 21.9128 198.39 22.3808C198.016 22.1624 197.621 21.9752 197.205 21.8296C196.373 21.528 195.478 21.3824 194.542 21.3824C192.556 21.3824 190.372 22.0376 188.157 23.3168C180.471 27.7576 174.231 38.5528 174.252 47.3928C174.262 50.6168 175.126 53.2584 176.665 55.0472C176.53 54.9328 176.405 54.8184 176.28 54.704C174.543 52.9984 173.618 50.2944 173.607 46.8936Z" fill="#CCEBFF"/>
<path opacity="0.54" d="M195.094 31.1377C195.114 37.8769 190.351 46.1241 184.496 49.5041C182.874 50.4401 181.293 50.9185 179.899 50.9289C180.315 50.7521 180.7 50.5545 181.085 50.3361C187.21 46.8001 192.182 38.1889 192.161 31.1377C192.15 28.7977 191.568 26.8217 190.486 25.3969C191.381 25.1577 192.202 25.0849 192.951 25.1681C194.314 26.3953 195.073 28.5065 195.094 31.1377Z" fill="#C5E7FC"/>
<path d="M172.723 48.4847C172.723 48.5263 172.734 48.5679 172.744 48.5991C172.796 49.1191 172.858 49.5871 172.942 50.0135C172.962 50.1279 172.973 50.1695 172.983 50.2319C173.066 50.6167 173.17 51.0327 173.285 51.4383C173.285 51.4591 173.358 51.6463 173.358 51.6671C173.493 52.0311 173.628 52.3639 173.753 52.6967L173.826 52.8527C173.992 53.1959 174.169 53.5183 174.356 53.8303L173.378 53.2687C173.108 53.1127 172.869 52.9255 172.609 52.7383L172.38 52.5407C172.224 52.3951 172.047 52.2391 171.902 52.0727C171.818 51.9895 171.756 51.9167 171.704 51.8439C171.506 51.6047 171.33 51.3863 171.153 51.1367C171.153 51.1159 171.111 51.0743 171.07 51.0223C171.07 51.0119 171.059 51.0015 171.049 50.9911C170.862 50.7207 170.695 50.4087 170.55 50.0863C170.55 50.0759 170.539 50.0655 170.529 50.0551C170.508 49.9927 170.487 49.9511 170.456 49.8991C170.373 49.7223 170.279 49.5143 170.206 49.2959C170.196 49.2647 170.175 49.1919 170.154 49.1295L170.102 48.9839C170.102 48.9735 170.071 48.8695 170.061 48.8591C170.05 48.8279 169.988 48.6303 169.978 48.6095C169.905 48.3495 169.842 48.1103 169.79 47.8815L169.738 47.6215C169.738 47.6111 169.707 47.4967 169.697 47.4863L169.52 46.3735C169.52 46.3007 169.51 46.2279 169.499 46.1551C169.499 46.1551 169.499 46.1343 169.489 46.1135L172.63 47.9231L172.723 48.4847Z" fill="#3D6B89"/>
<path d="M187.554 18.5535C187.606 18.5431 187.647 18.5327 187.689 18.5119C187.658 18.5327 187.741 18.5119 187.803 18.4807C188.084 18.4391 188.271 18.4079 188.479 18.3767L188.625 18.3663C188.698 18.3663 188.77 18.3559 188.833 18.3455C188.937 18.3351 189.01 18.3351 189.093 18.3143C189.186 18.3143 189.29 18.3143 189.384 18.3039C189.488 18.3039 189.592 18.2935 189.696 18.2935C189.925 18.3143 189.977 18.3143 190.029 18.3143C190.06 18.3143 190.091 18.3143 190.122 18.3247L190.434 18.3351C190.632 18.3559 190.871 18.3871 191.1 18.4287C191.152 18.4495 191.225 18.4703 191.287 18.4703C191.61 18.5535 191.838 18.6055 192.057 18.6887C192.088 18.7095 192.13 18.7303 192.171 18.7407C192.525 18.8655 192.868 19.0215 193.19 19.2087L194.158 19.7703H194.126C193.981 19.7599 193.825 19.7599 193.669 19.7599C193.45 19.7599 193.222 19.7703 192.993 19.7911C192.982 19.7911 192.878 19.8015 192.868 19.8015C192.462 19.8431 192.036 19.9055 191.62 19.9991C191.578 19.9991 191.506 20.0095 191.464 20.0199C191.058 20.1239 190.632 20.2383 190.185 20.3735C189.987 20.4463 189.842 20.4983 189.706 20.5503L186.888 18.7199C186.94 18.6991 187.002 18.6887 187.054 18.6679C187.138 18.6367 187.231 18.6159 187.314 18.5951L187.554 18.5535Z" fill="#A2C5DB"/>
<path d="M185.494 44.8862V43.087C184.465 43.711 183.394 44.0542 182.77 43.9918L183.196 42.5358C183.841 42.567 184.766 42.3278 185.765 41.7142C187.034 40.9342 187.886 39.6654 187.886 38.6566C187.886 37.679 187.19 37.5022 185.869 37.783C184.049 38.199 182.926 38.0742 182.926 36.5246C182.926 35.0478 183.976 33.2694 185.619 31.9902V30.191L186.722 29.5046V31.231C187.793 30.607 188.521 30.4406 189.041 30.4198L188.594 31.8654C188.219 31.8862 187.491 31.9486 186.347 32.6454C184.974 33.4982 184.454 34.6318 184.454 35.3494C184.454 36.275 185.11 36.327 186.659 36.015C188.5 35.6302 189.426 35.9734 189.426 37.5646C189.426 38.9686 188.448 40.903 186.607 42.3382V44.1894L185.494 44.8862Z" fill="#17374C"/>
</svg>
