<svg width="198" height="42" viewBox="0 0 198 42" fill="none" xmlns="http://www.w3.org/2000/svg">
<path d="M185.842 32.99C183.348 32.99 181.178 32.506 179.33 31.538C177.482 30.5406 176.044 29.162 175.018 27.402C174.02 25.642 173.522 23.618 173.522 21.33C173.522 19.0126 174.02 16.9887 175.018 15.258C176.044 13.498 177.467 12.134 179.286 11.166C181.104 10.1686 183.216 9.66998 185.622 9.66998C187.939 9.66998 189.948 10.1393 191.65 11.078C193.351 12.0166 194.671 13.322 195.61 14.994C196.548 16.666 197.018 18.6313 197.018 20.89C197.018 21.3593 197.003 21.7993 196.974 22.21C196.944 22.5913 196.9 22.958 196.842 23.31H177.394V18.954H191.518L190.374 19.746C190.374 17.9273 189.934 16.5927 189.054 15.742C188.203 14.862 187.03 14.422 185.534 14.422C183.803 14.422 182.454 15.0086 181.486 16.182C180.547 17.3553 180.078 19.1153 180.078 21.462C180.078 23.75 180.547 25.4513 181.486 26.566C182.454 27.6806 183.891 28.238 185.798 28.238C186.854 28.238 187.763 28.062 188.526 27.71C189.288 27.358 189.86 26.786 190.242 25.994H196.446C195.712 28.1646 194.451 29.8806 192.662 31.142C190.902 32.374 188.628 32.99 185.842 32.99Z" fill="white"/>
<path d="M167.468 32.55V10.11H174.068V32.55H167.468ZM167.248 7.11799V-0.0100098H174.288V7.11799H167.248Z" fill="white"/>
<path d="M144.444 32.55V10.11H150.912V15.39H151.044V32.55H144.444ZM160.064 32.55V18.646C160.064 17.414 159.741 16.49 159.096 15.874C158.48 15.258 157.57 14.95 156.368 14.95C155.341 14.95 154.417 15.1847 153.596 15.654C152.804 16.1233 152.173 16.7686 151.704 17.59C151.264 18.4113 151.044 19.3793 151.044 20.494L150.472 15.082C151.205 13.4393 152.276 12.134 153.684 11.166C155.121 10.1686 156.881 9.66998 158.964 9.66998C161.457 9.66998 163.364 10.374 164.684 11.782C166.004 13.1606 166.664 15.0233 166.664 17.37V32.55H160.064Z" fill="white"/>
<path d="M136.544 32.55V10.11H143.144V32.55H136.544ZM136.324 7.11799V-0.0100098H143.364V7.11799H136.324Z" fill="white"/>
<path d="M123.215 42.01C120.106 42.01 117.569 41.35 115.603 40.03C113.667 38.71 112.523 36.9207 112.171 34.662H118.419C118.654 35.2193 119.153 35.6447 119.915 35.938C120.707 36.2313 121.705 36.378 122.907 36.378C124.902 36.378 126.354 35.9967 127.263 35.234C128.173 34.4713 128.627 33.2833 128.627 31.67V26.786L128.979 26.874C128.686 28.5167 127.835 29.822 126.427 30.79C125.019 31.7287 123.274 32.198 121.191 32.198C119.197 32.198 117.451 31.7433 115.955 30.834C114.489 29.8953 113.345 28.59 112.523 26.918C111.702 25.246 111.291 23.2806 111.291 21.022C111.291 18.734 111.717 16.7393 112.567 15.038C113.418 13.3366 114.606 12.0166 116.131 11.078C117.686 10.1393 119.49 9.66998 121.543 9.66998C123.655 9.66998 125.371 10.1686 126.691 11.166C128.041 12.1633 128.833 13.5273 129.067 15.258L128.759 15.302V10.11H135.227V31.582C135.227 34.8087 134.157 37.346 132.015 39.194C129.874 41.0713 126.941 42.01 123.215 42.01ZM123.479 27.138C125.034 27.138 126.295 26.61 127.263 25.554C128.231 24.4686 128.715 22.9287 128.715 20.934C128.715 18.9393 128.217 17.414 127.219 16.358C126.251 15.2726 124.975 14.73 123.391 14.73C121.866 14.73 120.605 15.2726 119.607 16.358C118.639 17.4433 118.155 18.9833 118.155 20.978C118.155 22.9727 118.639 24.498 119.607 25.554C120.605 26.61 121.895 27.138 123.479 27.138Z" fill="white"/>
<path d="M109.523 33.034C106.648 33.034 104.507 32.3446 103.099 30.966C101.72 29.558 101.031 27.4313 101.031 24.586V5.09397L107.631 2.62997V24.806C107.631 25.8033 107.909 26.5513 108.467 27.05C109.024 27.5486 109.889 27.798 111.063 27.798C111.503 27.798 111.913 27.754 112.295 27.666C112.676 27.578 113.057 27.4753 113.439 27.358V32.374C113.057 32.5793 112.515 32.7406 111.811 32.858C111.136 32.9753 110.373 33.034 109.523 33.034ZM96.8505 15.126V10.11H113.439V15.126H96.8505Z" fill="white"/>
<path d="M76.5377 32.55V10.11H83.0057V15.39H83.1377V32.55H76.5377ZM92.1577 32.55V18.646C92.1577 17.414 91.835 16.49 91.1897 15.874C90.5737 15.258 89.6643 14.95 88.4617 14.95C87.435 14.95 86.511 15.1847 85.6897 15.654C84.8977 16.1233 84.267 16.7686 83.7977 17.59C83.3577 18.4113 83.1377 19.3793 83.1377 20.494L82.5657 15.082C83.299 13.4393 84.3697 12.134 85.7777 11.166C87.215 10.1686 88.975 9.66998 91.0577 9.66998C93.551 9.66998 95.4577 10.374 96.7777 11.782C98.0977 13.1606 98.7577 15.0233 98.7577 17.37V32.55H92.1577Z" fill="white"/>
<path d="M69.4849 32.55C69.3089 31.9046 69.1769 31.2153 69.0889 30.482C69.0303 29.7486 69.0009 28.898 69.0009 27.93H68.8249V17.326C68.8249 16.4166 68.5169 15.7127 67.9009 15.214C67.3143 14.686 66.4343 14.422 65.2609 14.422C64.1463 14.422 63.2516 14.6126 62.5769 14.994C61.9316 15.3753 61.5063 15.9327 61.3009 16.666H55.0089C55.3023 14.642 56.3436 12.97 58.1329 11.65C59.9223 10.33 62.3716 9.66998 65.4809 9.66998C68.7076 9.66998 71.1716 10.3886 72.8729 11.826C74.5743 13.2633 75.4249 15.3313 75.4249 18.03V27.93C75.4249 28.6633 75.4689 29.4113 75.5569 30.174C75.6743 30.9073 75.8503 31.6993 76.0849 32.55H69.4849ZM61.6529 32.99C59.4236 32.99 57.6489 32.4327 56.3289 31.318C55.0089 30.174 54.3489 28.6633 54.3489 26.786C54.3489 24.7033 55.1263 23.0313 56.6809 21.77C58.2649 20.4793 60.4649 19.6433 63.2809 19.262L69.8369 18.338V22.166L64.3809 23.002C63.2076 23.178 62.3423 23.5006 61.7849 23.97C61.2276 24.4393 60.9489 25.0847 60.9489 25.906C60.9489 26.6393 61.2129 27.1967 61.7409 27.578C62.2689 27.9593 62.9729 28.15 63.8529 28.15C65.2316 28.15 66.4049 27.7833 67.3729 27.05C68.3409 26.2873 68.8249 25.4073 68.8249 24.41L69.4409 27.93C68.7956 29.602 67.8129 30.8633 66.4929 31.714C65.1729 32.5647 63.5596 32.99 61.6529 32.99Z" fill="white"/>
<path d="M40.37 32.99C38.786 32.99 37.422 32.6527 36.278 31.978C35.1633 31.274 34.3127 30.35 33.726 29.206C33.1393 28.0327 32.846 26.7273 32.846 25.29V10.11H39.446V24.014C39.446 25.246 39.754 26.17 40.37 26.786C40.986 27.402 41.8513 27.71 42.966 27.71C43.9633 27.71 44.8433 27.4753 45.606 27.006C46.3687 26.5367 46.97 25.8913 47.41 25.07C47.8793 24.2193 48.114 23.2513 48.114 22.166L48.686 27.578C47.9527 29.1913 46.882 30.4967 45.474 31.494C44.066 32.4913 42.3647 32.99 40.37 32.99ZM48.246 32.55V27.27H48.114V10.11H54.714V32.55H48.246Z" fill="white"/>
<path d="M16.236 32.99C13.0973 32.99 10.296 32.3007 7.832 30.922C5.39733 29.5433 3.476 27.622 2.068 25.158C0.689333 22.694 0 19.834 0 16.578C0 13.3513 0.689333 10.5353 2.068 8.12999C3.44667 5.69533 5.35333 3.80333 7.788 2.45399C10.252 1.10466 13.0533 0.429993 16.192 0.429993C19.3893 0.429993 22.2053 1.10466 24.64 2.45399C27.0747 3.80333 28.9813 5.69533 30.36 8.12999C31.768 10.5647 32.472 13.3953 32.472 16.622C32.472 18.6753 32.1347 20.6113 31.46 22.43C30.8147 24.2487 29.7587 25.818 28.292 27.138C26.8547 28.458 24.948 29.4407 22.572 30.086L16.236 32.99ZM16.192 27.886C18.04 27.886 19.668 27.4313 21.076 26.522C22.484 25.6127 23.584 24.3073 24.376 22.606C25.1973 20.9047 25.608 18.8807 25.608 16.534C25.608 14.3633 25.212 12.4713 24.42 10.858C23.628 9.24466 22.528 7.99799 21.12 7.11799C19.712 6.23799 18.0693 5.79799 16.192 5.79799C14.344 5.79799 12.716 6.23799 11.308 7.11799C9.9 7.99799 8.8 9.24466 8.008 10.858C7.24533 12.442 6.864 14.334 6.864 16.534C6.864 18.91 7.26 20.9487 8.052 22.65C8.844 24.322 9.944 25.6127 11.352 26.522C12.76 27.4313 14.3733 27.886 16.192 27.886ZM16.236 32.99V28.238L34.1 27.358V32.55C32.2227 32.55 30.536 32.5647 29.04 32.594C27.5733 32.6527 26.18 32.7113 24.86 32.77C23.54 32.8287 22.1907 32.8727 20.812 32.902C19.4333 32.9607 17.908 32.99 16.236 32.99Z" fill="white"/>
</svg>
