<svg width="312" height="262" viewBox="0 0 312 262" fill="none" xmlns="http://www.w3.org/2000/svg">
<path d="M278.046 32.5838L281.025 32.4006L284.05 97.7127L280.613 97.4834L278.046 32.5838Z" fill="white"/>
<path d="M27.6166 212.981L109.199 108.116L215.347 108.666L239.179 73.2834L219.93 63.384L278.046 32.5837L280.613 97.4834L260.813 86.1166L214.797 155.966L121.665 133.049L59.8832 213.348L27.6166 212.981Z" fill="#0F8EDF"/>
<path d="M260.813 86.1167L263.569 87.6919L218.967 156.492L214.797 155.966L260.813 86.1167Z" fill="white"/>
<path d="M121.665 133.049L125.091 133.908L63.1825 213.485L59.8834 213.348L121.665 133.049Z" fill="white"/>
<path d="M162.631 229.106C222.636 232.044 223.679 193.573 223.679 193.573C226.126 129.591 177.268 109.324 177.268 109.324L157.19 108.556C157.19 108.556 106.477 123.836 105.119 189.038C105.119 189.038 102.578 227.452 162.631 229.106ZM194.937 83.6998L178.482 103.645L174.68 108.252L170.049 108.152L160.152 107.933L141.535 82.0377C139.445 79.1279 141.841 75.1244 145.395 75.6028L149.788 76.1889L155.378 76.9373C158.775 74.6503 162.199 73.2781 165.642 72.8856C165.799 72.8657 165.956 72.85 166.109 72.8364C167.543 72.6983 168.978 72.7401 170.418 72.961C172.007 73.1975 173.608 73.6497 175.211 74.3206C177.234 75.1673 179.268 76.3658 181.305 77.9295L186.88 77.4313L191.414 77.0252C195.034 76.7049 197.244 80.8999 194.937 83.6998Z" fill="#297EB5"/>
<path d="M149.787 76.1887L165.029 97.4811L155.378 76.9381L149.787 76.1887Z" fill="white"/>
<path d="M181.307 77.9295L170.194 97.678L186.885 77.4292L181.307 77.9295Z" fill="white"/>
<path d="M170.419 72.961L168.424 93.5855L168.388 93.9697L165.643 72.8856C165.8 72.8657 165.957 72.85 166.111 72.8364C167.543 72.6983 168.978 72.7401 170.419 72.961Z" fill="white"/>
<path d="M163.633 126.022C164.351 126.049 165.052 125.661 165.391 124.974L173.146 109.193C173.604 108.263 173.22 107.139 172.29 106.681C171.36 106.225 170.236 106.608 169.778 107.538L162.022 123.319C161.565 124.249 161.949 125.374 162.879 125.831C163.121 125.95 163.378 126.012 163.633 126.022Z" fill="white"/>
<path d="M180.923 124.889C181.298 124.904 181.681 124.806 182.02 124.585C182.888 124.017 183.131 122.855 182.564 121.988L172.946 107.268C172.379 106.4 171.216 106.156 170.349 106.723C169.481 107.291 169.237 108.452 169.804 109.32L179.421 124.04C179.767 124.57 180.336 124.867 180.923 124.889Z" fill="white"/>
<path d="M165.258 203.63C182.286 203.63 196.09 189.826 196.09 172.797C196.09 155.769 182.286 141.965 165.258 141.965C148.229 141.965 134.425 155.769 134.425 172.797C134.425 189.826 148.229 203.63 165.258 203.63Z" fill="#1F5B81"/>
<path d="M168.182 147.608L168.041 153.816C171.601 153.958 175.264 155.15 177.382 156.735L175.814 160.819C173.634 159.293 170.464 158.054 167.021 157.976C162.658 157.876 159.653 160.329 159.573 163.833C159.496 167.212 161.843 169.356 166.349 171.304C172.564 173.906 176.372 176.821 176.251 182.169C176.135 187.27 172.42 191.06 166.743 191.854L166.602 198.062L162.794 197.975L162.93 192.013C159.245 191.807 156.746 190.765 154.985 189.68L156.615 185.659C157.888 186.425 160.379 187.835 164.312 187.925C169.044 188.033 170.89 185.244 170.945 182.787C171.017 179.591 168.782 177.942 163.487 175.608C157.213 172.881 154.089 169.613 154.213 164.143C154.323 159.286 157.808 154.815 164.164 153.916L164.309 147.521L168.182 147.608Z" fill="white"/>
<path d="M155.184 109.413L179.197 110.331C180.518 110.381 181.629 109.352 181.681 108.031C181.731 106.71 180.701 105.598 179.38 105.547L155.367 104.629C154.047 104.579 152.935 105.609 152.885 106.93C152.833 108.251 153.863 109.363 155.184 109.413Z" fill="white"/>
<path d="M91.9229 221.849H127.154C124.392 220.183 117.545 219.006 109.538 219.006C101.53 219.006 94.684 220.183 91.9229 221.849Z" fill="#2991D4"/>
<path d="M90.6177 221.849V224.787C90.6177 227.261 99.0873 229.266 109.537 229.266C119.985 229.266 128.457 227.261 128.457 224.787V221.849H90.6177Z" fill="#259AE4"/>
<path d="M109.538 226.329C119.987 226.329 128.458 224.323 128.458 221.849C128.458 219.374 119.987 217.368 109.538 217.368C99.0895 217.368 90.6189 219.374 90.6189 221.849C90.6189 224.323 99.0895 226.329 109.538 226.329Z" fill="#33B0FF"/>
<path d="M94.4893 221.849C94.4893 223.665 101.227 225.136 109.538 225.136C117.85 225.136 124.586 223.665 124.586 221.849C124.586 220.033 117.849 218.561 109.538 218.561C101.227 218.561 94.4893 220.033 94.4893 221.849Z" fill="#2696DD"/>
<path d="M104.2 222.685C104.2 222.427 104.422 222.225 104.865 222.078C105.307 221.93 105.831 221.825 106.433 221.759C107.034 221.694 107.855 221.626 108.893 221.555V220.496C108.492 220.53 108.17 220.586 107.927 220.667C107.685 220.748 107.543 220.842 107.502 220.95H104.366C104.464 220.621 104.91 220.363 105.706 220.177C106.503 219.991 107.565 219.882 108.893 219.853V219.399H110.223V219.853C111.593 219.883 112.712 220 113.576 220.205C114.442 220.411 114.874 220.675 114.874 221C114.874 221.257 114.653 221.46 114.209 221.61C113.767 221.76 113.24 221.867 112.631 221.934C112.022 222.001 111.219 222.068 110.222 222.136V223.205C111.164 223.15 111.675 222.987 111.758 222.718H114.873C114.846 223.047 114.409 223.307 113.565 223.499C112.721 223.692 111.605 223.804 110.222 223.837V224.297H108.892V223.844C107.923 223.825 107.083 223.761 106.369 223.651C105.656 223.541 105.116 223.401 104.749 223.231C104.384 223.062 104.2 222.88 104.2 222.685ZM111.843 220.961C111.843 220.823 111.697 220.713 111.406 220.63C111.116 220.549 110.721 220.498 110.223 220.48V221.448C110.749 221.4 111.15 221.337 111.427 221.26C111.705 221.184 111.843 221.085 111.843 220.961ZM108.893 223.218V222.238C108.353 222.286 107.938 222.348 107.648 222.422C107.357 222.497 107.211 222.596 107.211 222.718C107.211 222.845 107.36 222.954 107.658 223.043C107.957 223.133 108.368 223.191 108.893 223.218Z" fill="#2991D4"/>
<path d="M90.4376 217.931H125.668C122.906 216.266 116.06 215.088 108.053 215.088C100.045 215.088 93.1987 216.267 90.4376 217.931Z" fill="#2991D4"/>
<path d="M120.849 224.169C124.613 223.351 126.973 222.175 126.973 220.869V217.931H89.1335V220.869C89.1335 223.343 97.6032 225.349 108.053 225.349C112.987 225.349 117.48 224.902 120.849 224.169Z" fill="#259AE4"/>
<path d="M89.1335 217.931C89.1335 220.405 97.6042 222.412 108.053 222.412C118.502 222.412 126.973 220.405 126.973 217.931C126.973 215.457 118.502 213.45 108.053 213.45C97.6042 213.45 89.1335 215.457 89.1335 217.931Z" fill="#33B0FF"/>
<path d="M93.0051 217.931C93.0051 219.747 99.7425 221.218 108.053 221.218C116.365 221.218 123.101 219.747 123.101 217.931C123.101 216.115 116.364 214.643 108.053 214.643C99.7415 214.643 93.0051 216.115 93.0051 217.931Z" fill="#2696DD"/>
<path d="M102.716 218.768C102.716 218.511 102.938 218.308 103.381 218.161C103.823 218.014 104.347 217.908 104.948 217.842C105.55 217.777 106.371 217.708 107.409 217.638V216.58C107.008 216.613 106.686 216.67 106.443 216.75C106.201 216.831 106.059 216.925 106.018 217.033H102.882C102.98 216.704 103.426 216.447 104.222 216.261C105.019 216.074 106.081 215.965 107.409 215.936V215.483H108.738V215.936C110.109 215.966 111.227 216.084 112.092 216.289C112.958 216.494 113.39 216.759 113.39 217.083C113.39 217.341 113.169 217.544 112.725 217.693C112.282 217.843 111.756 217.951 111.147 218.018C110.538 218.085 109.735 218.152 108.737 218.219V219.289C109.679 219.233 110.191 219.071 110.274 218.802H113.389C113.362 219.131 112.925 219.39 112.08 219.583C111.236 219.775 110.121 219.887 108.736 219.922V220.38H107.407V219.927C106.438 219.908 105.597 219.844 104.884 219.733C104.171 219.624 103.631 219.483 103.263 219.314C102.899 219.144 102.716 218.962 102.716 218.768ZM110.358 217.043C110.358 216.905 110.212 216.795 109.921 216.713C109.63 216.631 109.236 216.58 108.737 216.562V217.53C109.264 217.482 109.665 217.419 109.942 217.343C110.219 217.266 110.358 217.167 110.358 217.043ZM107.409 219.3V218.32C106.869 218.369 106.454 218.43 106.164 218.505C105.873 218.579 105.727 218.678 105.727 218.802C105.727 218.929 105.876 219.037 106.174 219.126C106.471 219.215 106.883 219.274 107.409 219.3Z" fill="#2991D4"/>
<path d="M91.9229 214.013H127.154C124.392 212.348 117.545 211.17 109.538 211.17C101.53 211.171 94.684 212.349 91.9229 214.013Z" fill="#2991D4"/>
<path d="M90.6177 214.013V216.951C90.6177 219.426 99.0873 221.431 109.537 221.431C119.985 221.431 128.457 219.426 128.457 216.951V214.013H90.6177Z" fill="#259AE4"/>
<path d="M90.6177 214.013C90.6177 216.488 99.0884 218.494 109.537 218.494C119.986 218.494 128.457 216.488 128.457 214.013C128.457 211.539 119.986 209.532 109.537 209.532C99.0884 209.532 90.6177 211.539 90.6177 214.013Z" fill="#33B0FF"/>
<path d="M94.4893 214.013C94.4893 215.829 101.227 217.301 109.538 217.301C117.85 217.301 124.586 215.829 124.586 214.013C124.586 212.197 117.849 210.726 109.538 210.726C101.227 210.726 94.4893 212.197 94.4893 214.013Z" fill="#2696DD"/>
<path d="M104.2 214.851C104.2 214.593 104.422 214.391 104.865 214.244C105.307 214.096 105.831 213.99 106.433 213.924C107.034 213.859 107.855 213.791 108.893 213.72V212.662C108.492 212.696 108.17 212.753 107.927 212.833C107.685 212.913 107.543 213.007 107.502 213.115H104.366C104.464 212.787 104.91 212.529 105.706 212.343C106.503 212.157 107.565 212.048 108.893 212.018V211.565H110.223V212.018C111.593 212.049 112.712 212.166 113.576 212.371C114.442 212.576 114.874 212.841 114.874 213.166C114.874 213.423 114.653 213.626 114.209 213.776C113.767 213.925 113.24 214.033 112.631 214.1C112.022 214.167 111.219 214.234 110.222 214.301V215.371C111.164 215.314 111.675 215.152 111.758 214.884H114.873C114.846 215.213 114.409 215.472 113.565 215.665C112.721 215.858 111.605 215.97 110.222 216.003V216.463H108.892V216.009C107.923 215.991 107.083 215.927 106.369 215.817C105.656 215.707 105.116 215.567 104.749 215.397C104.384 215.226 104.2 215.044 104.2 214.851ZM111.843 213.126C111.843 212.988 111.697 212.878 111.406 212.795C111.116 212.713 110.721 212.663 110.223 212.644V213.612C110.749 213.564 111.15 213.502 111.427 213.425C111.705 213.35 111.843 213.249 111.843 213.126ZM108.893 215.382V214.403C108.353 214.451 107.938 214.513 107.648 214.587C107.357 214.661 107.211 214.761 107.211 214.883C107.211 215.01 107.36 215.119 107.658 215.208C107.957 215.299 108.368 215.356 108.893 215.382Z" fill="#2991D4"/>
<path d="M92.6085 210.095H127.839C125.077 208.43 118.231 207.253 110.224 207.253C102.215 207.254 95.3686 208.431 92.6085 210.095Z" fill="#2991D4"/>
<path d="M91.3032 210.095V213.033C91.3032 215.508 99.7729 217.513 110.223 217.513C120.672 217.513 129.142 215.508 129.142 213.033V210.095H91.3032Z" fill="#259AE4"/>
<path d="M110.224 214.576C120.673 214.576 129.144 212.57 129.144 210.096C129.144 207.621 120.673 205.615 110.224 205.615C99.775 205.615 91.3044 207.621 91.3044 210.096C91.3044 212.57 99.775 214.576 110.224 214.576Z" fill="#33B0FF"/>
<path d="M110.224 213.383C118.535 213.383 125.272 211.911 125.272 210.095C125.272 208.28 118.535 206.808 110.224 206.808C101.913 206.808 95.1759 208.28 95.1759 210.095C95.1759 211.911 101.913 213.383 110.224 213.383Z" fill="#14A2FC"/>
<path d="M104.886 210.933C104.886 210.675 105.108 210.473 105.55 210.326C105.993 210.178 106.516 210.073 107.118 210.007C107.72 209.942 108.541 209.874 109.579 209.803V208.744C109.178 208.778 108.856 208.834 108.613 208.915C108.371 208.996 108.229 209.09 108.187 209.198H105.051C105.148 208.869 105.594 208.611 106.391 208.425C107.187 208.239 108.25 208.13 109.579 208.101V207.647H110.908V208.101C112.278 208.131 113.397 208.248 114.262 208.453C115.127 208.659 115.56 208.923 115.56 209.248C115.56 209.505 115.339 209.709 114.895 209.858C114.452 210.008 113.926 210.115 113.317 210.182C112.707 210.249 111.905 210.316 110.908 210.383V211.452C111.85 211.397 112.362 211.233 112.445 210.965H115.56C115.532 211.294 115.096 211.555 114.251 211.746C113.407 211.939 112.292 212.052 110.908 212.085V212.544H109.579V212.091C108.61 212.072 107.769 212.008 107.055 211.898C106.343 211.788 105.803 211.648 105.435 211.478C105.069 211.309 104.886 211.127 104.886 210.933ZM112.529 209.209C112.529 209.071 112.383 208.961 112.092 208.878C111.801 208.797 111.406 208.745 110.908 208.728V209.696C111.435 209.648 111.836 209.585 112.113 209.508C112.39 209.432 112.529 209.332 112.529 209.209ZM109.579 211.465V210.485C109.039 210.534 108.623 210.595 108.332 210.67C108.041 210.745 107.896 210.844 107.896 210.966C107.896 211.093 108.045 211.202 108.343 211.291C108.641 211.381 109.054 211.438 109.579 211.465Z" fill="#E7E9EB"/>
<path d="M91.9229 206.445H127.154C124.392 204.779 117.545 203.602 109.538 203.602C101.53 203.602 94.684 204.779 91.9229 206.445Z" fill="#2991D4"/>
<path d="M90.6177 206.444V209.382C90.6177 211.856 99.0873 213.861 109.537 213.861C119.985 213.861 128.457 211.856 128.457 209.382V206.444H90.6177Z" fill="#259AE4"/>
<path d="M109.538 210.924C119.987 210.924 128.458 208.918 128.458 206.444C128.458 203.969 119.987 201.963 109.538 201.963C99.0895 201.963 90.6189 203.969 90.6189 206.444C90.6189 208.918 99.0895 210.924 109.538 210.924Z" fill="#33B0FF"/>
<path d="M94.4893 206.444C94.4893 208.26 101.227 209.731 109.538 209.731C117.85 209.731 124.586 208.26 124.586 206.444C124.586 204.628 117.849 203.156 109.538 203.156C101.227 203.156 94.4893 204.628 94.4893 206.444Z" fill="#2696DD"/>
<path d="M104.2 207.281C104.2 207.024 104.422 206.822 104.865 206.674C105.307 206.526 105.831 206.42 106.433 206.355C107.034 206.29 107.855 206.222 108.893 206.151V205.093C108.492 205.126 108.17 205.183 107.927 205.263C107.685 205.344 107.543 205.438 107.502 205.546H104.366C104.464 205.217 104.91 204.96 105.706 204.773C106.503 204.587 107.565 204.478 108.893 204.449V203.996H110.223V204.449C111.593 204.479 112.712 204.596 113.576 204.802C114.442 205.007 114.874 205.271 114.874 205.596C114.874 205.853 114.653 206.056 114.209 206.206C113.767 206.356 113.24 206.464 112.631 206.531C112.022 206.598 111.219 206.665 110.222 206.732V207.8C111.164 207.745 111.675 207.581 111.758 207.314H114.873C114.846 207.642 114.409 207.903 113.565 208.094C112.721 208.287 111.605 208.399 110.222 208.432V208.892H108.892V208.439C107.923 208.42 107.083 208.356 106.369 208.245C105.656 208.135 105.116 207.995 104.749 207.825C104.384 207.657 104.2 207.475 104.2 207.281ZM111.843 205.556C111.843 205.418 111.697 205.308 111.406 205.226C111.116 205.145 110.721 205.094 110.223 205.076V206.044C110.749 205.996 111.15 205.933 111.427 205.857C111.705 205.78 111.843 205.68 111.843 205.556ZM108.893 207.813V206.833C108.353 206.881 107.938 206.943 107.648 207.018C107.357 207.093 107.211 207.192 107.211 207.315C107.211 207.441 107.36 207.55 107.658 207.639C107.957 207.729 108.368 207.787 108.893 207.813Z" fill="#2991D4"/>
<path d="M90.4376 202.527H125.668C122.906 200.862 116.06 199.684 108.053 199.684C100.045 199.684 93.1987 200.862 90.4376 202.527Z" fill="#2991D4"/>
<path d="M89.1335 202.526V205.464C89.1335 207.938 97.6032 209.944 108.053 209.944C118.502 209.944 126.973 207.938 126.973 205.464V202.526H89.1335Z" fill="#259AE4"/>
<path d="M89.1335 202.526C89.1335 205 97.6042 207.007 108.053 207.007C118.502 207.007 126.973 205 126.973 202.526C126.973 200.052 118.502 198.045 108.053 198.045C97.6042 198.045 89.1335 200.052 89.1335 202.526Z" fill="#33B0FF"/>
<path d="M93.0051 202.526C93.0051 204.342 99.7425 205.813 108.053 205.813C116.365 205.813 123.101 204.342 123.101 202.526C123.101 200.71 116.364 199.238 108.053 199.238C99.7415 199.238 93.0051 200.711 93.0051 202.526Z" fill="#2696DD"/>
<path d="M102.716 203.364C102.716 203.106 102.938 202.904 103.381 202.757C103.823 202.609 104.347 202.503 104.948 202.437C105.55 202.372 106.371 202.303 107.409 202.233V201.175C107.008 201.209 106.686 201.265 106.443 201.346C106.201 201.426 106.059 201.52 106.018 201.628H102.882C102.98 201.3 103.426 201.042 104.222 200.856C105.019 200.669 106.081 200.562 107.409 200.531V200.078H108.738V200.531C110.109 200.562 111.227 200.679 112.092 200.884C112.958 201.089 113.39 201.354 113.39 201.678C113.39 201.936 113.169 202.139 112.725 202.289C112.282 202.438 111.756 202.546 111.147 202.613C110.538 202.68 109.735 202.747 108.737 202.815V203.884C109.679 203.828 110.191 203.666 110.274 203.397H113.389C113.362 203.726 112.925 203.985 112.08 204.178C111.236 204.371 110.121 204.484 108.736 204.517V204.975H107.407V204.522C106.438 204.503 105.597 204.44 104.884 204.329C104.171 204.219 103.631 204.078 103.263 203.909C102.899 203.739 102.716 203.557 102.716 203.364ZM110.358 201.64C110.358 201.502 110.212 201.392 109.921 201.309C109.63 201.227 109.236 201.176 108.737 201.158V202.126C109.264 202.078 109.665 202.016 109.942 201.939C110.219 201.863 110.358 201.762 110.358 201.64ZM107.409 203.895V202.916C106.869 202.964 106.454 203.026 106.164 203.101C105.873 203.175 105.727 203.275 105.727 203.397C105.727 203.524 105.876 203.633 106.174 203.722C106.471 203.812 106.883 203.869 107.409 203.895Z" fill="#2991D4"/>
<path d="M91.9227 198.609H127.154C124.391 196.944 117.545 195.767 109.538 195.767C101.53 195.767 94.6838 196.944 91.9227 198.609Z" fill="#2991D4"/>
<path d="M90.6177 198.608V201.546C90.6177 204.02 99.0873 206.026 109.537 206.026C119.985 206.026 128.457 204.02 128.457 201.546V198.608H90.6177Z" fill="#259AE4"/>
<path d="M90.6177 198.608C90.6177 201.083 99.0884 203.089 109.537 203.089C119.986 203.089 128.457 201.083 128.457 198.608C128.457 196.134 119.986 194.127 109.537 194.127C99.0884 194.128 90.6177 196.134 90.6177 198.608Z" fill="#33B0FF"/>
<path d="M94.4893 198.608C94.4893 200.424 101.227 201.896 109.538 201.896C117.85 201.896 124.586 200.424 124.586 198.608C124.586 196.792 117.849 195.321 109.538 195.321C101.227 195.321 94.4893 196.793 94.4893 198.608Z" fill="#2696DD"/>
<path d="M104.2 199.446C104.2 199.188 104.422 198.986 104.865 198.839C105.307 198.691 105.831 198.585 106.433 198.519C107.034 198.454 107.855 198.385 108.893 198.315V197.257C108.492 197.291 108.17 197.348 107.927 197.428C107.685 197.508 107.543 197.602 107.502 197.71H104.366C104.464 197.382 104.91 197.124 105.706 196.938C106.503 196.752 107.565 196.643 108.893 196.613V196.16H110.223V196.613C111.593 196.644 112.712 196.761 113.576 196.966C114.442 197.171 114.874 197.436 114.874 197.761C114.874 198.018 114.653 198.221 114.209 198.371C113.767 198.52 113.24 198.628 112.631 198.695C112.022 198.762 111.219 198.829 110.222 198.897V199.966C111.164 199.91 111.675 199.747 111.758 199.479H114.873C114.846 199.808 114.409 200.068 113.565 200.26C112.721 200.453 111.605 200.565 110.222 200.598V201.058H108.892V200.604C107.923 200.585 107.083 200.522 106.369 200.411C105.656 200.301 105.116 200.161 104.749 199.991C104.384 199.821 104.2 199.639 104.2 199.446ZM111.843 197.722C111.843 197.584 111.697 197.474 111.406 197.391C111.116 197.309 110.721 197.258 110.223 197.24V198.208C110.749 198.16 111.15 198.098 111.427 198.021C111.705 197.945 111.843 197.845 111.843 197.722ZM108.893 199.977V198.998C108.353 199.046 107.938 199.108 107.648 199.182C107.357 199.256 107.211 199.356 107.211 199.478C107.211 199.605 107.36 199.714 107.658 199.803C107.957 199.894 108.368 199.951 108.893 199.977Z" fill="#2991D4"/>
<path d="M92.6085 194.692H127.839C125.077 193.026 118.231 191.849 110.224 191.849C102.215 191.849 95.3686 193.026 92.6085 194.692Z" fill="#2991D4"/>
<path d="M91.3032 194.692V197.63C91.3032 200.104 99.7729 202.109 110.223 202.109C120.672 202.109 129.142 200.104 129.142 197.63V194.692H91.3032Z" fill="#259AE4"/>
<path d="M91.3032 194.692C91.3032 197.166 99.7739 199.172 110.223 199.172C120.672 199.172 129.142 197.166 129.142 194.692C129.142 192.217 120.672 190.211 110.223 190.211C99.7739 190.211 91.3032 192.216 91.3032 194.692Z" fill="#33B0FF"/>
<path d="M95.1748 194.692C95.1748 196.508 101.912 197.979 110.223 197.979C118.533 197.979 125.271 196.508 125.271 194.692C125.271 192.876 118.533 191.404 110.223 191.404C101.912 191.404 95.1748 192.876 95.1748 194.692Z" fill="#14A2FC"/>
<path d="M104.886 195.528C104.886 195.27 105.108 195.068 105.55 194.921C105.993 194.773 106.516 194.667 107.118 194.602C107.72 194.537 108.541 194.468 109.579 194.398V193.339C109.178 193.373 108.856 193.429 108.613 193.51C108.371 193.591 108.229 193.685 108.187 193.793H105.051C105.148 193.464 105.594 193.206 106.391 193.02C107.187 192.834 108.25 192.725 109.579 192.696V192.242H110.908V192.696C112.278 192.726 113.397 192.843 114.262 193.048C115.127 193.254 115.56 193.518 115.56 193.843C115.56 194.1 115.339 194.303 114.895 194.453C114.452 194.603 113.926 194.71 113.317 194.777C112.707 194.844 111.905 194.911 110.908 194.978V196.048C111.85 195.993 112.362 195.829 112.445 195.561H115.56C115.532 195.89 115.096 196.15 114.251 196.342C113.407 196.535 112.292 196.647 110.908 196.681V197.14H109.579V196.687C108.61 196.668 107.769 196.604 107.055 196.493C106.343 196.383 105.803 196.243 105.435 196.073C105.069 195.905 104.886 195.723 104.886 195.528ZM112.529 193.804C112.529 193.666 112.383 193.556 112.092 193.473C111.801 193.392 111.406 193.34 110.908 193.323V194.291C111.435 194.243 111.836 194.18 112.113 194.103C112.39 194.027 112.529 193.928 112.529 193.804ZM109.579 196.06V195.08C109.039 195.128 108.623 195.19 108.332 195.265C108.041 195.34 107.896 195.439 107.896 195.561C107.896 195.688 108.045 195.797 108.343 195.886C108.641 195.976 109.054 196.033 109.579 196.06Z" fill="#E7E9EB"/>
<path d="M93.0082 190.982H128.239C125.477 189.317 118.631 188.139 110.624 188.139C102.614 188.14 95.7682 189.318 93.0082 190.982Z" fill="#2991D4"/>
<path d="M91.7029 190.982V193.92C91.7029 196.394 100.173 198.4 110.622 198.4C121.071 198.4 129.542 196.394 129.542 193.92V190.982H91.7029Z" fill="#259AE4"/>
<path d="M91.7029 190.982C91.7029 193.457 100.174 195.463 110.622 195.463C121.071 195.463 129.542 193.457 129.542 190.982C129.542 188.508 121.071 186.501 110.622 186.501C100.174 186.501 91.7029 188.508 91.7029 190.982Z" fill="#33B0FF"/>
<path d="M95.5747 190.982C95.5747 192.798 102.312 194.27 110.624 194.27C118.935 194.27 125.672 192.798 125.672 190.982C125.672 189.166 118.934 187.695 110.624 187.695C102.313 187.695 95.5747 189.166 95.5747 190.982Z" fill="#2696DD"/>
<path d="M105.286 191.82C105.286 191.562 105.507 191.36 105.95 191.213C106.393 191.065 106.916 190.959 107.518 190.893C108.12 190.828 108.94 190.759 109.979 190.689V189.631C109.578 189.665 109.256 189.721 109.013 189.802C108.771 189.882 108.629 189.976 108.588 190.084H105.452C105.549 189.756 105.995 189.498 106.792 189.312C107.588 189.126 108.651 189.017 109.98 188.987V188.534H111.309V188.987C112.679 189.018 113.798 189.135 114.663 189.34C115.528 189.545 115.96 189.81 115.96 190.135C115.96 190.392 115.739 190.596 115.296 190.745C114.853 190.894 114.327 191.002 113.717 191.069C113.108 191.136 112.306 191.203 111.308 191.271V192.341C112.25 192.285 112.762 192.122 112.845 191.854H115.959C115.932 192.183 115.496 192.443 114.651 192.635C113.807 192.828 112.693 192.94 111.308 192.973V193.433H109.979V192.979C109.01 192.961 108.169 192.897 107.455 192.787C106.742 192.677 106.202 192.537 105.835 192.367C105.469 192.195 105.286 192.013 105.286 191.82ZM112.928 190.095C112.928 189.957 112.783 189.847 112.492 189.765C112.201 189.683 111.806 189.632 111.308 189.614V190.583C111.835 190.534 112.235 190.472 112.513 190.395C112.79 190.319 112.928 190.218 112.928 190.095ZM109.979 192.351V191.372C109.439 191.42 109.023 191.482 108.733 191.557C108.442 191.631 108.297 191.731 108.297 191.853C108.297 191.98 108.446 192.089 108.744 192.178C109.041 192.268 109.453 192.325 109.979 192.351Z" fill="#2991D4"/>
<path d="M91.5231 187.066H126.754C123.992 185.4 117.145 184.223 109.138 184.223C101.13 184.223 94.2842 185.4 91.5231 187.066Z" fill="#2991D4"/>
<path d="M90.2178 187.065V190.003C90.2178 192.477 98.6874 194.482 109.137 194.482C119.586 194.482 128.057 192.477 128.057 190.003V187.065H90.2178Z" fill="#259AE4"/>
<path d="M90.2178 187.065C90.2178 189.539 98.6885 191.545 109.137 191.545C119.586 191.545 128.057 189.539 128.057 187.065C128.057 184.59 119.586 182.584 109.137 182.584C98.6885 182.584 90.2178 184.59 90.2178 187.065Z" fill="#33B0FF"/>
<path d="M94.0894 187.064C94.0894 188.88 100.827 190.352 109.138 190.352C117.449 190.352 124.186 188.88 124.186 187.064C124.186 185.248 117.449 183.777 109.138 183.777C100.827 183.777 94.0894 185.25 94.0894 187.064Z" fill="#2696DD"/>
<path d="M103.8 187.902C103.8 187.644 104.022 187.442 104.465 187.295C104.908 187.147 105.431 187.041 106.033 186.976C106.635 186.911 107.455 186.843 108.494 186.772V185.713C108.093 185.747 107.77 185.803 107.528 185.884C107.286 185.965 107.143 186.059 107.103 186.167H103.967C104.064 185.838 104.51 185.58 105.307 185.394C106.103 185.208 107.165 185.099 108.495 185.07V184.616H109.824V185.07C111.194 185.1 112.313 185.217 113.178 185.422C114.043 185.628 114.475 185.892 114.475 186.217C114.475 186.474 114.253 186.677 113.811 186.827C113.368 186.977 112.842 187.084 112.232 187.151C111.623 187.218 110.82 187.285 109.823 187.352V188.421C110.765 188.366 111.277 188.203 111.359 187.934H114.474C114.447 188.263 114.011 188.524 113.166 188.715C112.322 188.908 111.207 189.02 109.823 189.054V189.514H108.494V189.061C107.524 189.042 106.684 188.978 105.97 188.867C105.257 188.757 104.717 188.617 104.35 188.447C103.985 188.278 103.8 188.096 103.8 187.902ZM111.443 186.178C111.443 186.04 111.298 185.93 111.007 185.847C110.716 185.766 110.321 185.714 109.823 185.697V186.665C110.349 186.617 110.75 186.554 111.028 186.477C111.305 186.401 111.443 186.301 111.443 186.178ZM108.495 188.434V187.454C107.955 187.502 107.539 187.564 107.248 187.639C106.957 187.714 106.812 187.813 106.812 187.935C106.812 188.062 106.96 188.171 107.259 188.26C107.557 188.35 107.968 188.407 108.495 188.434Z" fill="#2991D4"/>
<path d="M93.0082 183.148H128.239C125.477 181.482 118.631 180.305 110.624 180.305C102.614 180.305 95.7682 181.482 93.0082 183.148Z" fill="#2991D4"/>
<path d="M91.7029 183.147V186.085C91.7029 188.559 100.173 190.564 110.622 190.564C121.071 190.564 129.542 188.559 129.542 186.085V183.147H91.7029Z" fill="#259AE4"/>
<path d="M91.7029 183.147C91.7029 185.621 100.174 187.628 110.622 187.628C121.071 187.628 129.542 185.621 129.542 183.147C129.542 180.672 121.071 178.666 110.622 178.666C100.174 178.667 91.7029 180.672 91.7029 183.147Z" fill="#33B0FF"/>
<path d="M95.5747 183.147C95.5747 184.963 102.312 186.435 110.624 186.435C118.935 186.435 125.672 184.963 125.672 183.147C125.672 181.331 118.934 179.859 110.624 179.859C102.313 179.859 95.5747 181.332 95.5747 183.147Z" fill="#2696DD"/>
<path d="M105.286 183.984C105.286 183.727 105.507 183.525 105.95 183.377C106.393 183.23 106.916 183.124 107.518 183.058C108.12 182.993 108.94 182.924 109.979 182.854V181.796C109.578 181.829 109.256 181.886 109.013 181.966C108.771 182.047 108.629 182.141 108.588 182.249H105.452C105.549 181.92 105.995 181.663 106.792 181.476C107.588 181.29 108.651 181.181 109.98 181.152V180.699H111.309V181.152C112.679 181.182 113.798 181.3 114.663 181.505C115.528 181.71 115.96 181.975 115.96 182.299C115.96 182.557 115.739 182.761 115.296 182.909C114.853 183.059 114.327 183.167 113.717 183.234C113.108 183.301 112.306 183.368 111.308 183.436V184.504C112.25 184.449 112.762 184.286 112.845 184.018H115.959C115.932 184.346 115.496 184.606 114.651 184.799C113.807 184.991 112.693 185.103 111.308 185.138V185.596H109.979V185.143C109.01 185.124 108.169 185.06 107.455 184.949C106.742 184.839 106.202 184.699 105.835 184.53C105.469 184.36 105.286 184.178 105.286 183.984ZM112.928 182.26C112.928 182.122 112.783 182.012 112.492 181.931C112.201 181.849 111.806 181.798 111.308 181.78V182.748C111.835 182.7 112.235 182.637 112.513 182.561C112.79 182.483 112.928 182.384 112.928 182.26ZM109.979 184.516V183.536C109.439 183.584 109.023 183.646 108.733 183.72C108.442 183.795 108.297 183.894 108.297 184.018C108.297 184.144 108.446 184.253 108.744 184.342C109.041 184.432 109.453 184.49 109.979 184.516Z" fill="#2991D4"/>
<path d="M93.6937 179.23H128.925C126.162 177.565 119.316 176.387 111.309 176.387C103.3 176.387 96.4538 177.565 93.6937 179.23Z" fill="#2991D4"/>
<path d="M92.3885 179.23V182.168C92.3885 184.643 100.858 186.648 111.308 186.648C121.757 186.648 130.228 184.643 130.228 182.168V179.23H92.3885Z" fill="#259AE4"/>
<path d="M92.3885 179.23C92.3885 181.705 100.859 183.711 111.308 183.711C121.757 183.711 130.228 181.706 130.228 179.23C130.228 176.756 121.757 174.75 111.308 174.75C100.859 174.75 92.3885 176.755 92.3885 179.23Z" fill="#33B0FF"/>
<path d="M96.2603 179.23C96.2603 181.046 102.998 182.518 111.308 182.518C119.619 182.518 126.356 181.046 126.356 179.23C126.356 177.414 119.619 175.943 111.308 175.943C102.998 175.943 96.2603 177.414 96.2603 179.23Z" fill="#14A2FC"/>
<path d="M105.971 180.066C105.971 179.809 106.193 179.607 106.636 179.459C107.079 179.312 107.602 179.206 108.204 179.14C108.806 179.075 109.626 179.007 110.664 178.936V177.878C110.264 177.911 109.941 177.969 109.698 178.049C109.457 178.129 109.314 178.223 109.272 178.331H106.138C106.235 178.002 106.681 177.745 107.477 177.559C108.274 177.372 109.336 177.265 110.665 177.234V176.781H111.995V177.234C113.365 177.265 114.484 177.382 115.348 177.587C116.214 177.792 116.646 178.057 116.646 178.381C116.646 178.639 116.425 178.842 115.982 178.992C115.538 179.141 115.012 179.249 114.403 179.316C113.794 179.383 112.991 179.45 111.995 179.518V180.587C112.936 180.531 113.449 180.368 113.531 180.1H116.646C116.619 180.429 116.182 180.689 115.338 180.881C114.493 181.073 113.378 181.186 111.995 181.22V181.679H110.665V181.226C109.696 181.207 108.856 181.144 108.142 181.033C107.429 180.923 106.889 180.782 106.522 180.613C106.154 180.443 105.971 180.261 105.971 180.066ZM113.614 178.343C113.614 178.204 113.468 178.095 113.177 178.012C112.887 177.93 112.492 177.88 111.994 177.861V178.829C112.519 178.781 112.921 178.718 113.198 178.642C113.476 178.566 113.614 178.466 113.614 178.343ZM110.664 180.598V179.619C110.124 179.667 109.709 179.728 109.419 179.803C109.128 179.877 108.982 179.976 108.982 180.099C108.982 180.226 109.131 180.334 109.429 180.423C109.727 180.514 110.138 180.572 110.664 180.598Z" fill="#E7E9EB"/>
</svg>
