<svg width="48" height="48" viewBox="0 0 48 48" fill="none" xmlns="http://www.w3.org/2000/svg">
<path d="M28.1968 33.909C27.4792 33.909 26.7616 33.6359 26.2153 33.0895L21.4948 28.3691C20.4023 27.2765 20.4023 25.4987 21.4948 24.4061L22.4062 23.4948C23.4988 22.4021 25.2766 22.4021 26.3692 23.4948L31.0896 28.2152C32.1821 29.3078 32.1821 31.0856 31.0896 32.1782L30.1782 33.0895C29.632 33.6359 28.9144 33.909 28.1968 33.909ZM24.3878 24.1147C24.2089 24.1143 24.0317 24.1494 23.8664 24.2177C23.7011 24.2861 23.551 24.3864 23.4245 24.513L22.5132 25.4243C21.982 25.9555 21.982 26.8198 22.5132 27.3508L27.2336 32.0712C27.7648 32.6023 28.629 32.6023 29.1602 32.0712L30.0715 31.1599C30.6027 30.6287 30.6027 29.7645 30.0715 29.2334L25.3511 24.513C25.2246 24.3864 25.0745 24.2861 24.9092 24.2178C24.7439 24.1494 24.5667 24.1144 24.3878 24.1147Z" fill="white"/>
<path d="M35.7245 39.3842C35.188 39.3842 34.6514 39.18 34.243 38.7716L32.0013 36.5299L31.9876 36.5159L31.5522 36.0562L30.0034 37.6049C29.7998 37.8096 29.5576 37.9719 29.2909 38.0824C29.0241 38.1929 28.7381 38.2494 28.4494 38.2486C28.1606 38.2494 27.8746 38.1929 27.6078 38.0824C27.3411 37.9719 27.0989 37.8096 26.8953 37.6049L17.6768 28.3859C16.4323 27.1413 15.9436 25.3124 16.4017 23.613L17.2973 20.2904C17.3318 20.1618 17.3319 20.0264 17.2975 19.8977C17.2632 19.7691 17.1956 19.6517 17.1016 19.5574L16.2381 18.6939C16.0333 18.4903 15.871 18.2481 15.7606 17.9814C15.6501 17.7146 15.5936 17.4286 15.5944 17.1399C15.5936 16.8511 15.6501 16.5651 15.7606 16.2984C15.871 16.0316 16.0333 15.7894 16.2381 15.5858L17.5801 14.2438C17.6509 14.1735 17.7069 14.0898 17.745 13.9977C17.7831 13.9055 17.8025 13.8066 17.8021 13.7069C17.8022 13.6072 17.7825 13.5084 17.7442 13.4164C17.7058 13.3244 17.6495 13.2409 17.5786 13.1707L12.6691 8.28953L6.07559 7.13302C5.68304 7.06472 5.32723 6.85994 5.07097 6.55482C4.81472 6.2497 4.67449 5.86386 4.67505 5.46541V4.05315C4.67505 3.57133 4.88116 3.11101 5.24059 2.79008C5.41856 2.63138 5.628 2.51202 5.85524 2.43978C6.08248 2.36754 6.3224 2.34405 6.55934 2.37085L15.0891 3.34025C15.2201 3.35517 15.3444 3.4057 15.4487 3.48637L21.8373 8.43315C21.8587 8.44976 21.8791 8.46742 21.8985 8.48633C22.193 8.77289 22.6697 8.77021 22.9609 8.48048C23.8004 7.64595 25.1458 7.62829 26.0239 8.44016L29.475 11.6314C29.6973 11.8374 29.8746 12.087 29.996 12.3646C30.1175 12.6423 30.1803 12.9419 30.1807 13.245V17.1503C30.1807 17.3528 30.2595 17.5431 30.4027 17.6862L38.6088 25.8906C38.8136 26.0942 38.9759 26.3363 39.0864 26.6031C39.1969 26.8698 39.2535 27.1559 39.2527 27.4446C39.2527 27.9678 39.0713 28.463 38.738 28.8584C38.7225 28.9736 38.7428 29.2049 39.0347 29.4968L41.2764 31.7385C42.0934 32.5555 42.0934 33.8846 41.2764 34.7015L37.2063 38.7716C36.7976 39.18 36.2611 39.3842 35.7245 39.3842ZM33.0263 35.5186L35.2611 37.7534C35.5166 38.0087 35.9323 38.0088 36.1877 37.7534L40.2578 33.6833C40.3805 33.5603 40.4494 33.3937 40.4494 33.22C40.4494 33.0463 40.3805 32.8796 40.2578 32.7567L38.0161 30.515C37.1007 29.5995 37.2338 28.6073 37.4568 28.1652C37.4913 28.0969 37.5364 28.0345 37.5905 27.9804C37.7336 27.8372 37.8124 27.647 37.8124 27.4446C37.8124 27.2422 37.7336 27.052 37.5905 26.9088L29.3843 18.7045C29.1795 18.5009 29.0172 18.2587 28.9066 17.9919C28.7961 17.7251 28.7396 17.4391 28.7404 17.1503V13.245C28.7403 13.1405 28.7186 13.0372 28.6768 12.9415C28.6349 12.8458 28.5738 12.7598 28.4972 12.6887L25.0461 9.4975C24.7416 9.21603 24.2614 9.21785 23.9759 9.50172C23.1414 10.3314 21.7829 10.3492 20.9264 9.54934L14.7261 4.74829L6.39643 3.80163C6.36101 3.79744 6.32511 3.80085 6.29112 3.81164C6.25714 3.82244 6.22584 3.84036 6.19934 3.86422C6.16775 3.89244 6.11476 3.95446 6.11476 4.05305V5.46531C6.11476 5.58848 6.20279 5.69331 6.32414 5.71462L13.1405 6.91021C13.2856 6.93565 13.4193 7.00494 13.5238 7.10873L18.5938 12.1497C18.7995 12.3531 18.9627 12.5953 19.074 12.8623C19.1853 13.1293 19.2424 13.4157 19.242 13.705C19.2432 13.9943 19.1869 14.2809 19.0764 14.5482C18.9659 14.8155 18.8033 15.0582 18.5982 15.2622L17.2561 16.6043C17.1856 16.6745 17.1296 16.758 17.0915 16.8499C17.0534 16.9419 17.0339 17.0405 17.0342 17.1401C17.0342 17.3424 17.113 17.5327 17.2561 17.6758L18.1196 18.5394C18.3923 18.8128 18.5883 19.1532 18.688 19.5263C18.7876 19.8995 18.7875 20.2922 18.6875 20.6653L17.7919 23.9877C17.4675 25.1913 17.8135 26.4863 18.6948 27.3677L27.9133 36.5867C27.9835 36.6573 28.067 36.7132 28.1589 36.7513C28.2509 36.7894 28.3495 36.8089 28.4491 36.8086C28.6514 36.8086 28.8417 36.7298 28.9848 36.5867L30.6165 34.9551C30.8718 34.6998 31.2141 34.5647 31.5721 34.5668C31.7494 34.5687 31.9244 34.6063 32.0867 34.6774C32.249 34.7485 32.3953 34.8517 32.5168 34.9808L33.0263 35.5186Z" fill="white"/>
<path d="M46.6417 46.8389C46.4694 46.8387 46.3029 46.7766 46.1724 46.6641C46.042 46.5516 45.9561 46.396 45.9306 46.2256C45.2585 41.7449 39.8781 35.0988 39.8237 35.0322C39.7031 34.8841 39.6462 34.6942 39.6656 34.5043C39.685 34.3143 39.7791 34.1398 39.9271 34.0192C40.0752 33.8986 40.2651 33.8417 40.455 33.8611C40.645 33.8805 40.8195 33.9745 40.9401 34.1226C41.1719 34.407 46.6247 41.1452 47.3546 46.012C47.37 46.1145 47.3631 46.2191 47.3343 46.3187C47.3056 46.4183 47.2556 46.5105 47.188 46.589C47.1203 46.6676 47.0364 46.7305 46.9422 46.7737C46.8479 46.8168 46.7454 46.8391 46.6417 46.8389ZM42.2687 46.8389C42.0978 46.8387 41.9325 46.7776 41.8025 46.6667C41.6724 46.5558 41.5861 46.4022 41.5588 46.2335C41.0063 42.8075 36.9575 38.008 36.9167 37.96C36.7961 37.8141 36.7378 37.6265 36.7544 37.4379C36.7711 37.2493 36.8613 37.0748 37.0056 36.9523C37.15 36.8297 37.3367 36.769 37.5255 36.7831C37.7143 36.7972 37.89 36.8851 38.0144 37.0278C38.1917 37.2366 42.3647 42.1858 42.9805 46.0041C42.9971 46.1071 42.9912 46.2125 42.9631 46.313C42.9349 46.4135 42.8853 46.5066 42.8176 46.5861C42.7499 46.6655 42.6658 46.7292 42.571 46.7729C42.4762 46.8165 42.3731 46.8391 42.2687 46.8389ZM5.39458 22.0333C3.06533 22.0333 1.17029 20.1383 1.17029 17.809C1.17029 14.3135 4.6595 9.37348 4.80811 9.16488C4.87469 9.07139 4.96265 8.99517 5.06467 8.94258C5.16669 8.89 5.2798 8.86256 5.39458 8.86257H5.39794C5.51329 8.86314 5.62681 8.8914 5.72897 8.94498C5.83113 8.99855 5.91892 9.07587 5.98498 9.17044C6.13339 9.38299 9.61896 14.4155 9.61896 17.809C9.61896 20.1383 7.72392 22.0333 5.39458 22.0333ZM5.38987 10.8917C5.07499 11.3878 4.67074 12.0567 4.26974 12.8102C3.18418 14.8499 2.61038 16.5785 2.61038 17.809C2.61038 19.3442 3.85944 20.5933 5.39467 20.5933C6.93 20.5933 8.17896 19.3442 8.17896 17.809C8.17896 16.615 7.602 14.8934 6.51038 12.8302C6.10776 12.0693 5.7037 11.3928 5.38987 10.8917ZM17.6643 15.8981C17.5239 15.8981 17.3866 15.857 17.2692 15.7799C17.1518 15.7028 17.0596 15.593 17.0038 15.4642C16.948 15.3353 16.9311 15.1929 16.9552 15.0546C16.9793 14.9162 17.0433 14.788 17.1394 14.6855L22.9434 8.49864C23.0081 8.42967 23.0857 8.37413 23.1719 8.33517C23.258 8.29622 23.351 8.27462 23.4455 8.27161C23.54 8.26859 23.6342 8.28423 23.7226 8.31761C23.8111 8.351 23.8921 8.40149 23.9611 8.46619C24.1003 8.59684 24.182 8.77746 24.1881 8.96832C24.1941 9.15917 24.1242 9.34462 23.9935 9.48388L18.1896 15.6708C18.1223 15.7427 18.0409 15.7999 17.9506 15.839C17.8602 15.8781 17.7628 15.8983 17.6643 15.8981Z" fill="white"/>
</svg>
