<svg width="54" height="54" viewBox="0 0 54 54" fill="none" xmlns="http://www.w3.org/2000/svg">
<path d="M19.2 23.1L15.1423 27.1577C14.4109 27.8891 14 28.8811 14 29.9154V33.5C14 36.9478 15.3696 40.2544 17.8076 42.6924C20.2456 45.1304 23.5522 46.5 27 46.5C30.4478 46.5 33.7544 45.1304 36.1924 42.6924C38.6304 40.2544 40 36.9478 40 33.5V27C40 26.3104 39.7261 25.6491 39.2385 25.1615C38.7509 24.6739 38.0896 24.4 37.4 24.4C37.0652 24.3996 36.7337 24.4653 36.4244 24.5934C36.1151 24.7215 35.8341 24.9095 35.5977 25.1465L35.45 25.2942L34.0023 23.8465C33.5243 23.3685 32.876 23.1 32.2 23.1C31.524 23.1 30.8757 23.3685 30.3977 23.8465L30.25 23.9942L28.8023 22.5465C28.3243 22.0685 27.676 21.8 27 21.8C26.324 21.8 25.6757 22.0685 25.1977 22.5465L24.4 23.3442V10.1C24.4 9.41044 24.1261 8.74912 23.6385 8.26152C23.1509 7.77393 22.4896 7.5 21.8 7.5C21.1104 7.5 20.4491 7.77393 19.9615 8.26152C19.4739 8.74912 19.2 9.41044 19.2 10.1V33.5" stroke="white" stroke-width="2.31111" stroke-linecap="round" stroke-linejoin="round"/>
</svg>
