<svg width="36" height="36" viewBox="0 0 36 36" fill="none" xmlns="http://www.w3.org/2000/svg">
<path d="M32.625 31.5C32.625 32.121 32.121 32.625 31.5 32.625H7.5C5.2245 32.625 3.375 30.7755 3.375 28.5V4.5C3.375 3.879 3.879 3.375 4.5 3.375C5.121 3.375 5.625 3.879 5.625 4.5V28.5C5.625 29.5335 6.4665 30.375 7.5 30.375H31.5C32.121 30.375 32.625 30.879 32.625 31.5ZM9 25.125C9.342 25.125 9.6795 24.969 9.9015 24.675L13.782 19.5015L17.406 21.762C17.6595 21.918 17.967 21.9675 18.258 21.903C18.549 21.834 18.801 21.6525 18.9585 21.3975L22.8465 15.084L26.376 17.436C26.8695 17.7645 27.54 17.6535 27.9 17.175L32.4 11.175C32.7735 10.677 32.6715 9.972 32.175 9.6C31.6785 9.2265 30.9735 9.3285 30.6 9.8235L26.739 14.973L23.124 12.564C22.869 12.393 22.554 12.336 22.26 12.402C21.9615 12.4665 21.702 12.651 21.5415 12.9105L17.6355 19.254L14.0955 17.0445C13.6005 16.7385 12.9495 16.857 12.6 17.325L8.1 23.325C7.7265 23.823 7.8285 24.528 8.325 24.9C8.5275 25.053 8.7645 25.125 9 25.125Z" fill="white"/>
</svg>
